<svg width="916" height="407" viewBox="0 0 916 407" fill="none" xmlns="http://www.w3.org/2000/svg">
<g clip-path="url(#clip0_111:4132)">
<g clip-path="url(#clip1_111:4132)">
<path d="M481.26 337.421C481.26 337.421 483.266 339.756 480.301 347.379C477.337 355.001 481.109 363.033 480.762 364.705C480.415 366.376 476.533 370.639 472.675 367.797C468.997 365.088 458.181 355.187 458.295 335.26C458.304 333.293 459.117 331.409 460.508 330C462.738 327.74 466.154 324.529 467.833 324.249C470.447 323.813 475.192 327.68 475.784 328.361C476.374 329.043 481.26 337.421 481.26 337.421Z" fill="#DD7296"/>
<path d="M488.707 331.897C483.71 333.836 481.26 337.421 481.26 337.421C481.26 337.421 482.315 339.981 480.217 340.027C478.12 340.073 468.652 331.391 471.041 327.647C471.041 327.647 477.241 322.027 479.786 321.603C482.331 321.179 491.901 330.659 488.707 331.897" fill="#FFB28E"/>
<path d="M472.675 367.797C476.533 370.639 480.415 366.376 480.762 364.705C480.804 364.508 480.783 364.216 480.728 363.853C479.405 363.417 477.067 362.691 472.812 360.373C464.861 356.043 463.181 339.727 463.045 335.685C462.908 331.645 465.157 328.516 466.858 327.079C467.783 326.297 468.189 325.131 468.373 324.22C468.187 324.213 468.004 324.221 467.833 324.249C466.154 324.529 462.738 327.74 460.508 330C459.117 331.409 458.304 333.293 458.295 335.26C458.181 355.187 468.997 365.088 472.675 367.797" fill="#B75B8E"/>
<path d="M504.94 322.793C504.94 322.793 490.016 337.729 487.735 336.707C485.456 335.684 476.544 323.201 478.202 318.7C479.86 314.197 504.94 291.896 504.94 291.896V322.793Z" fill="#817983"/>
<path d="M501.41 326.223C503.483 324.249 504.939 322.793 504.939 322.793V291.895C504.939 291.895 501.855 294.639 497.781 298.392C499.017 305.259 501.137 318.029 501.41 326.223Z" fill="#706672"/>
<path d="M523.679 360.592C523.679 360.592 527.3 360.608 531.903 368.993C536.503 377.38 546.591 380.176 547.831 381.747C549.069 383.32 549.954 389.96 544.466 391.183C539.24 392.348 522.125 394.305 504.294 379.075C502.533 377.571 501.46 375.428 501.248 373.139C500.907 369.468 500.617 364.037 501.639 362.355C503.233 359.735 510.311 358.512 511.373 358.512C512.434 358.512 523.679 360.592 523.679 360.592" fill="#DD7296"/>
<path d="M524.366 349.871C522.314 355.723 523.679 360.592 523.679 360.592C523.679 360.592 526.781 361.614 525.229 363.484C523.679 365.356 508.681 367.059 507.13 362.124C507.13 362.124 506.786 352.423 508.336 349.871C509.888 347.319 525.679 346.132 524.366 349.871" fill="#FFB28E"/>
<path d="M528.114 274.642C527.543 274.755 528.816 256.546 528.816 256.546C528.816 256.546 532.554 263.354 532.46 267.643C532.378 271.342 528.687 274.53 528.114 274.642V274.642ZM551.313 199.304L493.609 207.698C493.609 207.698 497.214 266.45 501.662 301.202C506.108 335.954 501.662 352.78 501.662 352.78C501.662 352.78 521.299 357.902 526.858 349.854C532.416 341.806 526.858 321.32 526.858 314.37C526.858 307.42 554.648 289.496 556.501 286.57C558.354 283.643 565.764 221.822 551.313 199.304Z" fill="#817983"/>
<path d="M510.223 68.6267C510.223 68.6267 490.871 73.3813 481.731 83.6053C472.593 93.8293 474.422 130.516 474.422 130.516C474.422 130.516 472.315 130.4 472.315 133.603C472.315 136.807 472.45 140.544 474.614 140.144C476.776 139.743 497.464 140.173 497.464 140.173C497.464 140.173 498.805 191.903 494.531 195.705C492.372 197.627 492.05 203.076 493.61 207.697C493.61 207.697 544.632 212.123 557.926 199.304C557.926 199.304 558.489 191.215 557.191 188.379C556.204 186.219 555.396 186.665 555.2 185.928C552.437 175.571 557.771 134.072 559.42 120.729C561.067 107.387 550.519 69.6946 536.014 68.6893C521.511 67.6853 510.223 68.6267 510.223 68.6267Z" fill="#7FEDFF"/>
<path d="M527.851 87.9441C541.446 85.0201 527.376 72.5267 518.947 68.2574C513.574 68.3507 510.223 68.6267 510.223 68.6267C510.223 68.6267 507.533 69.2881 503.687 70.6467C503.687 70.6521 507.413 92.3401 527.851 87.9441" fill="#B9F8FF"/>
<path d="M511.535 52.359C511.535 52.359 512.118 61.7164 510.223 68.627C510.223 68.627 507.698 67.875 506.431 70.643C505.204 73.3257 511.558 89.5937 528.856 83.771C530.201 83.319 530.76 81.6337 529.82 80.583C529.415 80.131 528.799 79.7137 527.867 79.4244C524.623 78.415 531.221 60.9977 531.221 60.9977L511.535 52.359" fill="#F99D83"/>
<path d="M519.847 14.6425C519.847 14.6425 505.994 16.2265 507.452 33.6452C508.91 51.0638 510.076 55.2385 510.076 55.2385C510.076 55.2385 511.125 53.5625 513.595 55.2385C516.067 56.9145 517.368 55.2385 517.368 55.2385C517.368 55.2385 558.197 41.8505 559.802 27.3105C559.802 27.3105 546.593 20.3292 543.469 14.6425C538.804 6.14918 523.347 6.58118 519.847 14.6425" fill="#817983"/>
<path d="M515.473 52.7918C515.473 52.7918 517.951 76.8318 527.138 76.6878C536.324 76.5438 538.219 73.2332 538.949 71.2172C539.678 69.2025 546.678 60.2772 548.135 58.9812C549.594 57.6852 550.469 48.1852 550.469 45.8812C550.469 43.5772 554.406 37.3878 551.346 34.5452C551.346 34.5452 538.949 37.3878 532.679 30.1892C532.679 30.1892 528.159 38.2518 522.763 41.2745C517.368 44.2972 515.473 52.7918 515.473 52.7918" fill="#FFB28E"/>
<path d="M561.101 88.4069C561.101 88.4069 559.321 90.1522 559.55 91.2242C559.699 91.9296 560.531 92.7456 561.388 92.2949C562.243 91.8442 562.584 88.5749 562.356 88.4069C562.128 88.2389 561.101 88.4069 561.101 88.4069" fill="#FFB28E"/>
<path d="M560.944 92.1998C560.42 93.7545 558.694 93.9038 558.694 93.9038L558.094 76.6892C558.094 76.6892 559.745 76.7238 560.195 77.1678C560.646 77.6118 561.47 90.6452 560.944 92.1998V92.1998ZM562.62 74.5678C561.04 73.3198 558.902 73.4078 558.902 73.4078V70.8959H542.83C542.83 70.8959 543.535 94.4705 545.982 96.4998C548.43 98.5292 555.28 98.8185 557.922 96.8865C557.922 96.8865 563.795 96.8865 564.088 92.1518C564.381 87.4172 563.385 75.1705 562.62 74.5678Z" fill="#FF4B72"/>
<path d="M567.396 72.7253C567.171 72.7293 558.912 76.9653 559.59 79.5426C560.268 82.1199 565.125 79.3639 566.104 79.0066C566.104 79.0066 566.902 79.0773 566.14 79.8293C565.378 80.58 559.722 84.696 560.049 86.988C560.049 86.988 560.472 88.6306 564.141 86.988V91.3386C564.141 91.3386 563.122 93.7386 563.995 93.9039C564.871 94.0679 563.79 95.9639 564.141 97.6306C564.491 99.2986 565.627 114.141 564.706 119.203C563.783 124.263 566.794 148.964 579.086 143.333C591.38 137.703 574.271 104.829 573.717 99.0186C573.717 99.0186 573.499 96.4653 574.566 95.6759C575.633 94.8853 576.7 90.584 575.989 89.6186C575.278 88.6533 576.434 85.3479 575.633 84.5426C574.834 83.7373 575.456 78.5573 574.122 78.3826C572.788 78.2066 569.472 72.6866 567.396 72.7253Z" fill="#FFB28E"/>
<path d="M579.085 132.707C579.085 132.707 582.743 117.313 596.604 114.081L592.753 110.661C592.753 110.661 581.396 116.552 578.124 124.535C578.124 124.535 559.802 109.331 548.75 116.743L520.374 138.331L521.517 143.228L555.193 152.212L579.085 132.707Z" fill="#FFE29C"/>
<path d="M542.49 152.212L519.719 144.717L549.826 119.783C549.826 119.783 568.113 115.032 579.086 132.707L555.194 152.212H542.49" fill="#FFC445"/>
<path d="M496.158 140.173C496.824 145.203 496.357 156.761 496.357 156.761C496.357 156.761 521.122 165.447 529.921 158.209C538.719 150.971 538.719 150.971 538.719 150.971L542.49 152.212C542.49 152.212 557.78 146.096 562.056 142.045C562.056 142.045 565.389 140.272 564.706 144.155C564.706 144.155 567.867 143.901 566.757 146.519C565.646 149.135 564.706 149.641 564.706 149.641C564.706 149.641 565.817 151.836 563.166 154.789C560.516 157.744 556.54 162.575 547.896 165.419C547.896 165.419 507.727 180.805 487.193 170.391C481.283 167.395 477.562 161.38 477.096 154.836L476.041 140.037L496.158 140.173" fill="#FFB28E"/>
<path d="M548.75 156.417L549.404 156.683C557.939 152.279 564.706 144.155 564.706 144.155C564.706 144.155 556.51 152.172 548.75 156.417" fill="#E69176"/>
<path d="M499.259 110.661C499.259 110.661 497.364 131.991 497.464 140.173C497.464 140.173 497.579 144.656 497.634 151.075C499.885 145.912 499.259 110.661 499.259 110.661" fill="#6DD8FF"/>
<path d="M566.839 94.2788C568.619 94.0894 569.985 92.8694 569.985 92.8694C566.884 94.6041 564.272 94.1081 564.272 94.1081V94.1401C564.294 94.1868 564.318 94.2308 564.326 94.2908C564.524 94.3268 565.312 94.4428 566.839 94.2788" fill="#E69176"/>
<path d="M564.032 91.6187C564.032 91.6187 568.848 88.0747 571.535 88.6867C571.535 88.6867 569.368 88.92 568.37 89.4614C567.371 90.0027 563.962 91.812 563.962 91.812L564.032 91.6187" fill="#E69176"/>
<path d="M564.141 86.9879C564.141 86.9879 567.608 83.9426 568.951 83.8399C570.295 83.7386 572.207 83.5853 572.207 83.5853C572.207 83.5853 569.711 83.1906 568.817 83.4106C567.922 83.6319 563.606 87.2119 563.606 87.2119L564.141 86.9879" fill="#E69176"/>
<path d="M544.466 391.183C549.954 389.96 549.069 383.32 547.831 381.747C547.683 381.563 547.407 381.357 547.038 381.131C545.641 381.96 543.213 383.457 537.898 385.424C527.966 389.101 512.023 378.185 508.285 375.236C504.55 372.287 503.442 367.939 503.442 365.357C503.442 363.953 502.701 362.711 502.024 361.857C501.874 362.019 501.743 362.184 501.639 362.353C500.617 364.037 500.907 369.468 501.248 373.139C501.46 375.428 502.533 377.571 504.294 379.075C522.125 394.305 539.24 392.348 544.466 391.183" fill="#B75B8E"/>
<path d="M529.701 273.372C528.972 274.132 528.326 274.6 528.114 274.641C527.894 274.685 527.948 272.009 528.097 268.704C526.868 288.188 526.056 306.944 526.858 314.369C526.858 314.18 526.887 313.976 526.928 313.769C526.941 313.705 526.955 313.64 526.973 313.574C527.012 313.417 527.063 313.256 527.124 313.09C527.151 313.018 527.174 312.948 527.204 312.874C527.282 312.685 527.375 312.489 527.479 312.29C527.547 312.157 527.625 312.021 527.702 311.886C527.751 311.804 527.8 311.722 527.852 311.638C528.184 311.098 528.59 310.529 529.064 309.938C528.812 302.885 529.153 288.762 529.701 273.372Z" fill="#706672"/>
<path d="M532.462 211.625C532.462 211.625 530.551 233.081 528.899 256.696C529.091 257.056 529.627 258.089 530.233 259.461C531.23 234.985 532.462 211.625 532.462 211.625Z" fill="#706672"/>
<path d="M557.926 199.304C557.926 199.304 558.489 191.215 557.191 188.379C556.591 187.065 556.059 186.717 555.689 186.48C534.477 192.92 505.739 193.445 495.602 193.412C495.291 194.551 494.936 195.345 494.531 195.705C492.372 197.627 492.05 203.076 493.609 207.697C493.609 207.697 544.632 212.123 557.926 199.304Z" fill="#B9F8FF"/>
<path d="M537.25 67.3442H532.536C532.015 67.3442 531.589 66.9256 531.589 66.4082C531.589 65.8922 532.015 65.4736 532.536 65.4736H537.25C537.772 65.4736 538.196 65.8922 538.196 66.4082C538.196 66.9256 537.772 67.3442 537.25 67.3442Z" fill="#DD8170"/>
<path d="M538.285 61.7705C537.862 61.7705 537.476 61.4879 537.368 61.0625C537.241 60.5625 537.547 60.0545 538.054 59.9279C538.705 59.7652 540.136 59.2052 540.41 58.5105C540.447 58.4185 540.543 58.1745 540.215 57.6772C538.359 54.8785 538.63 48.7678 538.642 48.5092C538.667 47.9932 539.083 47.5905 539.634 47.6199C540.156 47.6439 540.559 48.0812 540.535 48.5972C540.459 50.1932 540.537 54.7505 541.799 56.6532C542.515 57.7332 542.397 58.6305 542.174 59.1945C541.471 60.9679 538.815 61.6692 538.514 61.7425C538.437 61.7612 538.36 61.7705 538.285 61.7705" fill="#DD8170"/>
<path d="M496.357 156.761C496.357 156.761 488.122 152.653 487.39 148.397C487.39 148.397 487.39 157.683 499.259 157.683L496.357 156.761" fill="#E69176"/>
<path d="M555.2 157.023H556.144C559.499 154.492 564.706 149.642 564.706 149.642V149.428C564.706 149.428 558.975 154.471 555.2 157.023Z" fill="#E69176"/>
<path d="M566.14 79.8296C566.026 79.9416 565.795 80.1336 565.502 80.3776L565.501 80.3789C566.583 79.4589 569.603 78.3416 568.998 78.2669C568.505 78.2056 566.754 78.7922 566.129 79.0096C566.252 79.0282 566.825 79.1536 566.14 79.8296" fill="#E69176"/>
<path d="M565.889 79.0947C565.891 79.0934 565.891 79.0934 565.893 79.0934L565.889 79.0947Z" fill="#E69176"/>
<path d="M472.313 133.603C472.313 136.807 472.45 140.544 474.614 140.144C476.664 139.764 495.344 140.131 497.289 140.17C497.845 137.871 498.134 135.206 497.661 132.911C496.76 128.526 480.266 129.218 474.385 129.607C474.406 130.195 474.422 130.516 474.422 130.516C474.422 130.516 472.313 130.4 472.313 133.603Z" fill="#B9F8FF"/>
<path d="M449.412 75.1613C438.608 63.2853 418.743 60.4786 418.743 60.4786L404.922 62.9119C404.922 62.9119 382.763 65.6373 368.393 77.2266C354.021 88.8173 350.175 130.581 350.175 142.971C350.175 155.36 368.013 149.585 368.013 149.585C368.013 149.585 366.47 187.648 370.423 193.113C374.376 198.577 400.611 189.777 413.908 190.907C427.204 192.036 433.673 194.035 439.205 192.631C444.739 191.229 439.205 148.637 439.205 148.637C439.205 148.637 453.341 150.057 457.514 146.179C461.687 142.3 460.214 87.0386 449.412 75.1613" fill="#FF77B1"/>
<path d="M404.922 62.9122C404.922 62.9122 398.918 63.6535 391.139 65.9935C390.75 67.1615 390.595 68.5775 391.446 69.7042C393.216 72.0442 403.793 79.2442 414.55 73.4842C423.093 68.9095 426.048 64.6295 425.926 62.0868C421.691 60.8988 418.742 60.4788 418.742 60.4788L404.922 62.9122Z" fill="#FFD3DA"/>
<path d="M415.975 40.2161C415.975 40.2161 417.474 59.6827 418.742 60.4787C420.011 61.2761 422.085 61.0481 421.625 63.5521C421.164 66.0574 403.176 75.1641 397.872 69.0174C397.872 69.0174 397.41 67.1947 398.794 66.6267C400.177 66.0574 400.614 61.3894 400.165 58.8854C399.717 56.3814 415.975 40.2161 415.975 40.2161Z" fill="#F99383"/>
<path d="M371.798 109.823C370.54 112.839 371.798 122.817 371.798 122.817H373.05C371.989 121.167 371.798 109.823 371.798 109.823Z" fill="#CC5EB1"/>
<path d="M366.507 325.311V350.171H377.666L383.676 321.356L366.507 325.311" fill="#F99383"/>
<path d="M370.422 193.114C370.422 193.114 365.265 209.816 363.961 221.614C361.252 246.106 360.854 323.742 363.961 325.934C367.069 328.126 380.388 331.632 383.94 328.126C387.493 324.619 395.792 254.191 396.748 254.559C397.704 254.926 403.066 325.496 408.378 326.811C413.689 328.126 423.263 327.951 426.689 324.092C430.116 320.236 439.96 201.786 433.225 192.631C426.488 183.479 370.422 193.114 370.422 193.114" fill="#61D1FF"/>
<path d="M433.225 192.63C426.488 183.478 370.423 193.113 370.423 193.113C370.423 193.113 370.176 193.915 369.774 195.292C369.973 195.833 370.188 196.283 370.423 196.608C374.376 202.073 400.611 193.272 413.908 194.401C423.682 195.23 429.761 196.526 434.497 196.6C434.164 194.697 433.744 193.337 433.225 192.63" fill="#55BBFF"/>
<path d="M439.205 192.631C441.077 192.157 441.68 186.965 441.662 180.309C439.446 181.265 435.162 182.985 431.747 183.58C426.928 184.42 409.822 180.124 393.605 182.741C381.994 184.613 372.6 182.925 368.198 181.815C368.591 187.176 369.273 191.524 370.423 193.113C374.376 198.577 400.611 189.777 413.907 190.907C427.204 192.036 433.673 194.035 439.205 192.631" fill="#FFD3DA"/>
<path d="M412.685 122.817C412.685 122.817 411.894 121.543 411.679 120.101C411.464 118.659 410.716 117.271 409.34 116.189C407.964 115.107 404.922 115.381 404.922 115.381L393.774 123.509C393.774 123.509 394.07 128.883 397.258 129.408C400.444 129.932 403.823 129.864 404.922 131.273C406.02 132.684 406.514 134.276 407.382 133.973C409.688 133.169 409.657 131.172 412.685 122.817" fill="#F99383"/>
<path d="M408.377 116.739C408.527 116.635 408.843 116.422 409.258 116.134C407.848 115.12 404.922 115.382 404.922 115.382L393.774 123.51C393.774 123.51 393.951 126.628 395.445 128.346C396.535 127.742 397.443 127.287 397.93 127.15C400.001 126.566 403.35 125.495 405.223 124.522C407.095 123.55 409.657 119.075 409.067 118.782C408.476 118.491 407.391 117.42 408.377 116.739Z" fill="#FA777D"/>
<path d="M387.283 125.197L426.689 110.892L411.679 82.5439L375.871 92.7706L371.518 92.2319L352.358 77.3413L387.283 125.197Z" fill="#FFC445"/>
<path d="M375.871 92.7706L392.249 123.395L387.283 125.197L371.518 92.2319L375.871 92.7706" fill="#FFE29C"/>
<path d="M376.425 121.812C376.425 121.812 376.707 119.652 376.797 118.215C376.985 115.255 375.447 112.715 375.986 110.32C376.525 107.926 379.052 105.25 379.5 107.024C379.95 108.798 381.207 114.318 382.196 113.775C383.183 113.232 383.992 108.443 386.148 106.491C388.304 104.54 394.682 99.4855 396.03 100.106C397.378 100.727 397.646 102.5 396.03 103.299C394.412 104.098 387.071 111.459 387.283 111.991C387.495 112.522 386.327 117.843 387.675 117.932C389.023 118.02 402.498 103.299 403.755 103.831C405.013 104.363 405.192 106.048 404.474 106.847C403.755 107.644 397.017 115.507 396.658 116.32C396.299 117.134 395.85 118.642 396.748 118.287C397.646 117.932 407.887 109.596 410.942 110.394C413.995 111.192 406.629 116.07 405.731 116.691C404.833 117.311 400.88 120.327 401.239 120.327C401.6 120.327 405.822 118.287 406.36 118.552C406.899 118.819 404.563 122.899 402.857 123.786C401.15 124.672 398.096 125.648 396.209 126.18C394.323 126.712 385.696 132.324 385.696 132.324C385.696 132.324 379.647 129.523 378.422 127.698C377.165 125.824 376.425 121.812 376.425 121.812" fill="#F99383"/>
<path d="M354.062 78.6652L358.161 75.2145C358.161 75.2145 367.63 80.8972 373.756 88.2292C373.756 88.2292 390.371 78.8812 403.23 80.1638L404.922 84.4732L375.871 92.7705L371.518 92.2318L354.062 78.6652" fill="#FF9C45"/>
<path d="M396.658 116.32C396.658 116.32 391.446 120.999 391.446 121.423C391.446 121.845 396.748 118.287 396.748 118.287C395.85 118.641 396.298 117.133 396.658 116.32Z" fill="#FA777D"/>
<path d="M401.239 120.325C401.239 120.325 399.049 121.816 396.748 122.817C396.748 122.817 401.12 121.743 402.254 119.955L401.239 120.325" fill="#FA777D"/>
<path d="M368.013 124.272C368.237 124.8 368.008 127.084 368.008 127.084C368.008 127.084 359.515 128.139 356.312 132.18C356.312 132.18 357.472 129.87 359.9 128.52C361.652 127.547 366.981 126.517 367.096 126.232C367.209 125.947 368.013 124.272 368.013 124.272" fill="#CC5EB1"/>
<path d="M379.985 141.845C379.985 141.845 380.52 143.075 382.121 141.845C383.723 140.615 387.283 133.219 387.283 133.219C387.283 133.219 382.121 130.321 380.341 129.229C378.561 128.139 376.959 121.988 376.425 121.812C375.891 121.637 367.789 123.745 368.013 124.272C368.237 124.8 368.008 127.084 368.008 127.084C368.008 127.084 367.7 129.208 368.934 130.145C370.17 131.083 379.985 141.845 379.985 141.845Z" fill="#FFD3DA"/>
<path d="M385.696 132.324C385.696 132.324 387.37 132.32 387.914 132.961C388.457 133.601 383.186 143.167 381.884 143.704C380.583 144.241 379.492 144.375 379.492 144.375L367.897 153.132L368.013 149.585C368.013 149.585 377.849 144.129 379.985 141.845C379.985 141.845 380.52 143.075 382.121 141.845C383.723 140.615 387.283 133.219 387.283 133.219C387.283 133.219 386.624 132.849 385.696 132.324" fill="#CC5EB1"/>
<path d="M414.41 56.716C415.656 54.9307 416.442 52.7814 416.945 50.624C416.379 45.4654 415.975 40.216 415.975 40.216C415.975 40.216 399.717 56.3814 400.165 58.8854C400.397 60.1854 400.391 62.068 400.137 63.6574C400.682 64.0347 401.147 64.268 401.505 64.3333C405.292 65.0253 410.062 62.948 414.41 56.716" fill="#EA8083"/>
<path d="M416.457 38.2721C416.457 38.2721 417.58 48.9361 413.231 55.1681C408.882 61.4001 404.112 63.4775 400.325 62.7855C396.536 62.0922 380.965 42.7042 379.983 31.3482C379.002 19.9908 381.246 16.3908 386.156 15.1442C389.161 14.3815 399.764 11.7068 407.025 15.0535C411.629 17.1748 414.492 25.8082 414.492 25.8082C414.492 25.8082 419.963 22.0695 420.525 29.4082C421.086 36.7482 416.457 38.2721 416.457 38.2721" fill="#F99383"/>
<path d="M411.132 12.4638C411.132 12.4638 416.055 16.3132 415.974 20.7198C415.893 25.1252 415.535 34.7678 413.554 34.1878C411.572 33.6092 403.357 13.3332 404.09 12.4638C404.825 11.5958 411.132 12.4638 411.132 12.4638" fill="#504583"/>
<path d="M411.028 13.4095C411.028 13.4095 410.854 19.8095 399.629 19.6241C388.404 19.4388 387.002 21.5255 383.915 23.1455C380.826 24.7668 373.999 28.1201 368.013 19.2548C368.013 19.2548 374.747 18.3308 375.495 15.1922C376.245 12.0522 378.864 0.601471 388.404 0.0468045C397.945 -0.506529 413.423 3.83747 411.028 13.4095Z" fill="#5E5683"/>
<path d="M398.457 48.7451C397.938 48.7451 397.101 48.6225 396.128 48.0118C394.899 47.2385 395.021 45.8118 395.138 44.4331C395.203 43.6824 395.269 42.9064 395.153 42.1744C394.89 40.5264 393.389 37.6358 392.834 36.6611C392.595 36.2411 392.746 35.7078 393.172 35.4704C393.599 35.2344 394.137 35.3838 394.376 35.8038C394.464 35.9584 396.535 39.6104 396.901 41.9024C397.052 42.8424 396.972 43.7665 396.902 44.5798C396.825 45.4811 396.752 46.3318 397.078 46.5371C397.97 47.0958 398.577 46.9918 398.604 46.9905C399.071 46.9038 399.542 47.1985 399.644 47.6611C399.746 48.1225 399.472 48.5758 399.009 48.6905C398.959 48.7025 398.763 48.7451 398.457 48.7451" fill="#C56D70"/>
<path d="M396.2 54.8628C396.024 54.8628 395.847 54.8108 395.693 54.7054C395.295 54.4281 395.195 53.8881 395.473 53.4921C395.545 53.3895 397.259 50.9841 399.755 51.4228C400.943 51.6308 403.547 50.4161 404.908 49.6014C405.324 49.3521 405.87 49.4815 406.124 49.8948C406.376 50.3081 406.244 50.8455 405.825 51.0961C405.407 51.3455 401.66 53.5281 399.447 53.1441C398.073 52.8974 396.936 54.4748 396.925 54.4908C396.752 54.7335 396.478 54.8628 396.2 54.8628" fill="#C56D70"/>
<path d="M379.519 371.24C378.945 369.557 378.838 367.757 379.035 365.993C379.193 364.583 379.269 363.048 379.015 362.169C378.457 360.241 376.318 358.039 376.318 358.039L364.078 355.044C364.078 355.044 354.962 354.849 349.611 360.131C344.26 365.412 342.478 367.956 331.181 367.565C319.886 367.173 321.472 372.651 322.265 374.216C323.058 375.781 328.21 380.868 331.181 381.259C334.155 381.651 363.687 387.324 380.333 377.933C380.333 377.933 380.591 374.381 379.519 371.24" fill="#FFC445"/>
<path d="M330.554 376.321C328.025 375.988 323.972 372.363 322.169 370.196C321.285 371.704 321.872 373.44 322.265 374.216C323.057 375.781 328.21 380.868 331.181 381.259C334.155 381.651 363.687 387.324 380.333 377.933C380.333 377.933 380.48 375.876 380.079 373.508C362.731 382.309 333.553 376.716 330.554 376.321" fill="#FF9C45"/>
<path d="M364.479 348.752C367.708 346.458 377.458 348.16 380.333 350.171L377.458 358.744C377.458 358.744 372.246 359.455 368.83 358.744C365.416 358.035 362.72 357.858 362.72 355.551C362.72 353.244 363.038 349.779 364.479 348.752Z" fill="#FFD3DA"/>
<path d="M358.093 355.45C359.488 356.858 361.144 360.421 361.162 362.378C361.187 365.216 359.453 365.71 359.032 364.9C358.609 364.089 359.723 360.509 355.414 355.714C355.414 355.714 354.837 355.024 355.414 354.514C355.99 354.004 356.861 354.208 358.093 355.45Z" fill="#FF9C45"/>
<path d="M350.602 357.637C350.602 357.637 354.058 358.241 354.621 362.276C355.183 366.309 354.366 369.284 353.412 369.176C352.459 369.067 352.051 369.404 351.914 368.395C351.778 367.387 352.718 364.468 351.994 362.513C351.17 360.296 349.051 359.563 349.187 358.545C349.324 357.529 350.602 357.637 350.602 357.637" fill="#FF9C45"/>
<path d="M344.849 362.6C345.384 362.299 346.07 362.494 346.396 363.01C346.945 363.88 347.776 365.334 347.961 366.427C348.243 368.096 348.431 371.295 347.21 371.202C345.989 371.108 345.989 370.599 345.895 369.487C345.801 368.374 344.112 365.083 343.877 364.526C343.695 364.095 343.885 363.142 344.849 362.6Z" fill="#FF9C45"/>
<path d="M424.721 325.311V350.171H413.561L407.553 321.356L424.721 325.311" fill="#F99383"/>
<path d="M408.126 366.2C408.994 364.647 409.424 362.895 409.549 361.125C409.649 359.709 409.852 358.185 410.261 357.365C411.158 355.568 413.66 353.776 413.66 353.776L426.246 352.985C426.246 352.985 435.251 354.4 439.561 360.539C443.87 366.68 445.165 369.496 456.35 371.101C467.534 372.707 464.985 377.817 463.922 379.217C462.858 380.619 456.87 384.715 453.874 384.576C450.878 384.437 420.794 384.816 406.113 372.643C406.113 372.643 406.502 369.103 408.126 366.2Z" fill="#FFC445"/>
<path d="M455.384 379.828C457.933 379.947 462.577 377.093 464.742 375.28C465.339 376.917 464.449 378.523 463.922 379.217C462.858 380.619 456.87 384.715 453.874 384.576C450.878 384.437 420.794 384.816 406.113 372.643C406.113 372.643 406.34 370.593 407.163 368.335C422.643 380.051 452.363 379.688 455.384 379.828" fill="#FF9C45"/>
<path d="M426.988 346.725C424.226 343.897 414.325 343.855 411.133 345.327L412.412 354.269C412.412 354.269 417.412 355.887 420.901 355.791C424.389 355.692 427.073 355.993 427.49 353.724C427.908 351.455 428.222 347.988 426.988 346.725Z" fill="#FFD3DA"/>
<path d="M432.062 354.44C430.433 355.58 428.16 358.795 427.79 360.717C427.251 363.504 428.867 364.296 429.43 363.573C429.992 362.849 429.543 359.131 434.65 355.172C434.65 355.172 435.341 354.595 434.866 353.991C434.392 353.388 433.498 353.435 432.062 354.44" fill="#FF9C45"/>
<path d="M439.038 357.912C439.038 357.912 435.527 357.899 434.244 361.768C432.962 365.637 433.228 368.708 434.186 368.769C435.143 368.831 435.485 369.233 435.801 368.265C436.118 367.297 435.72 364.26 436.787 362.464C437.997 360.427 440.215 360.079 440.265 359.055C440.314 358.031 439.038 357.912 439.038 357.912" fill="#FF9C45"/>
<path d="M443.8 363.808C443.328 363.419 442.618 363.489 442.203 363.939C441.505 364.697 440.426 365.981 440.045 367.025C439.467 368.619 438.704 371.732 439.922 371.855C441.139 371.979 441.232 371.477 441.525 370.4C441.818 369.321 444.077 366.381 444.409 365.875C444.666 365.483 444.651 364.512 443.8 363.808" fill="#FF9C45"/>
<path d="M363.961 325.933C367.069 328.125 380.389 331.631 383.941 328.125C385.005 327.075 386.493 320.02 388.084 310.665C381.442 309.021 370.049 303.843 361.907 299.913C362.169 314.419 362.834 325.139 363.961 325.933" fill="#7FEDFF"/>
<path d="M431.249 291.979C421.93 301.793 408.922 307.979 403.631 310.231C405.134 319.56 406.757 326.409 408.378 326.811C413.689 328.125 423.263 327.951 426.689 324.092C427.797 322.847 429.576 309.615 431.249 291.979" fill="#7FEDFF"/>
<path d="M369.31 209.381C369.31 209.381 371.064 212.059 373.775 210.169C376.487 208.279 383.346 198.516 382.549 198.516C381.751 198.516 369.31 209.381 369.31 209.381" fill="#CFEAFF"/>
<path d="M432.539 209.381C432.539 209.381 430.785 212.059 428.073 210.169C425.361 208.279 418.502 198.516 419.301 198.516C420.097 198.516 432.539 209.381 432.539 209.381" fill="#CFEAFF"/>
<path d="M396.748 254.559C396.748 254.559 396.546 224.131 396.748 217.12C396.748 217.12 398.592 221.529 398.653 224.845C398.713 228.161 396.748 254.559 396.748 254.559Z" fill="#55BBFF"/>
<path d="M370.743 127.697C370.743 127.697 373.902 126.307 375.352 125.632Z" fill="white"/>
<path d="M370.864 127.964L370.623 127.432C370.655 127.419 373.795 126.035 375.227 125.369L375.478 125.896C374.041 126.564 370.895 127.949 370.864 127.964" fill="white"/>
<path d="M373.047 131.776C373.047 131.776 376.587 130.438 377.628 128.666Z" fill="white"/>
<path d="M373.154 132.047L372.943 131.504C372.977 131.491 376.396 130.182 377.374 128.52L377.883 128.812C376.803 130.652 373.302 131.991 373.154 132.047Z" fill="white"/>
<path d="M378.852 136.755C378.852 136.755 380.478 135.224 381.884 132.324Z" fill="white"/>
<path d="M379.055 136.965L378.647 136.545C378.664 136.529 380.255 135.011 381.617 132.199L382.15 132.451C380.737 135.365 379.123 136.901 379.055 136.965Z" fill="white"/>
<path d="M404.299 189.498L403.713 189.423C403.969 187.471 403.715 183.763 403.712 183.726L404.301 183.686C404.312 183.84 404.561 187.488 404.299 189.498" fill="white"/>
<path d="M419.492 189.605L418.98 189.316C419.413 188.564 419.815 185.364 419.934 184.195L420.521 184.252C420.477 184.695 420.066 188.609 419.492 189.605Z" fill="white"/>
<path d="M430.759 190.043H430.168V185.387H430.759V190.043Z" fill="white"/>
<path d="M436.885 190.172L436.355 189.912C437.229 188.188 437.113 184.913 437.11 184.88L437.702 184.857C437.706 184.999 437.824 188.317 436.885 190.172" fill="white"/>
<path d="M387.868 191.39C387.34 188.656 387.844 185.475 387.867 185.342L388.449 185.432C388.444 185.464 387.94 188.648 388.448 191.282L387.868 191.39" fill="white"/>
<path d="M376.376 192.773C375.028 190.477 374.9 186.748 374.896 186.592L375.484 186.573C375.486 186.611 375.613 190.313 376.886 192.483L376.376 192.773Z" fill="white"/>
<path d="M423.293 124.999C423.293 124.999 426.364 125.28 428.732 126.665C431.101 128.051 442.148 129.099 442.939 127.697C443.727 126.297 442.148 113.54 442.148 113.54C442.148 113.54 443.43 125.847 442.044 126.655C440.659 127.463 435.37 127.773 433.671 127.337C431.97 126.903 428.949 125.419 427.815 125.197C426.682 124.976 422.778 124.168 422.778 124.168L423.293 124.999Z" fill="#CC5EB1"/>
<path d="M417.163 141.809C417.163 141.809 417.331 136.844 416.065 136.195C414.796 135.545 406.808 133.889 406.808 133.889C406.808 133.889 407.654 137.024 408.658 137.932C409.66 138.839 411.988 140.608 414.661 142.093C417.334 143.58 417.845 144.693 419.014 146.424C420.182 148.156 425.612 149.64 429.704 149.585C433.796 149.529 439.412 150.297 439.412 150.297C439.18 148.336 438.696 147.823 438.696 147.823C438.696 147.823 429.029 147.14 424.195 147.043C419.36 146.945 417.163 141.809 417.163 141.809" fill="#CC5EB1"/>
<path d="M423.293 124.999C423.293 124.999 424.428 122.38 423.293 122.256C422.155 122.131 417.989 122.098 416.726 121.803C415.463 121.508 413.063 122.383 412.685 122.818C412.306 123.254 409.781 132.976 407.381 133.974C407.381 133.974 408.771 137.588 412.306 138.586C413.196 138.838 414.03 139.255 414.8 139.77L417.162 141.81C423.293 136.06 423.293 124.999 423.293 124.999" fill="#FFD3DA"/>
<path d="M421.296 125.887C419.612 124.947 413.567 124.975 413.505 124.972L413.502 124.389C413.757 124.392 419.769 124.363 421.585 125.379L421.296 125.887Z" fill="white"/>
<path d="M419.859 132.064C418.14 131.8 412.36 129.539 412.114 129.443L412.331 128.901C412.391 128.924 418.295 131.236 419.95 131.488L419.859 132.064" fill="white"/>
<path d="M416.637 136.974C414.517 135.123 410.537 134.834 410.496 134.83L410.537 134.248C410.708 134.262 414.76 134.556 417.028 136.536L416.637 136.974" fill="white"/>
<path d="M816.4 150.233C816.4 150.233 792.247 141.696 778.583 145.444C778.583 145.444 768.793 168.539 767.88 184.735C766.968 200.931 767.779 254.744 767.88 254.725C767.982 254.707 816.416 259.132 820.288 254.439C824.161 249.744 831.908 180.685 830.315 176.411C828.72 172.137 816.4 150.233 816.4 150.233" fill="#FFEAF0"/>
<path d="M735.085 369.112C735.085 369.112 731.256 368.789 729.689 370.055C728.124 371.319 718.013 387.344 709.613 391.561C701.212 395.779 702.779 400.978 704.202 401.964C705.626 402.947 716.732 406.18 725.987 404.352C735.243 402.525 741.508 394.935 749.055 393.951C756.601 392.965 759.021 393.107 759.875 391.561C760.73 390.015 758.168 384.673 757.598 383.267C757.028 381.861 755.675 367.7 754.324 367.4C751.693 366.813 749.311 367.852 749.311 367.852L735.085 369.112" fill="#5E5683"/>
<path d="M759.45 387.885C758.585 389.412 756.157 389.277 748.639 390.257C741.092 391.241 734.828 398.832 725.573 400.66C716.317 402.487 705.211 399.254 703.786 398.271C703.619 398.155 703.45 397.975 703.295 397.751C702.699 399.804 703.464 401.454 704.202 401.964C705.626 402.947 716.732 406.18 725.989 404.352C735.243 402.525 741.508 394.935 749.054 393.951C756.601 392.965 759.021 393.107 759.875 391.561C760.26 390.867 759.953 389.408 759.45 387.885Z" fill="#524583"/>
<path d="M734.388 365.696V370.055C734.388 370.055 731.256 370.055 731.826 371.037C732.396 372.021 746.919 374.411 753.183 369.211C753.183 369.211 751.191 364.712 750.763 363.728C750.336 362.744 734.388 365.696 734.388 365.696Z" fill="#FFB28E"/>
<path d="M848.075 369.112C848.075 369.112 851.904 368.789 853.469 370.055C855.036 371.319 865.147 387.344 873.547 391.561C881.948 395.779 880.381 400.978 878.958 401.964C877.534 402.947 866.427 406.18 857.173 404.352C847.917 402.525 841.652 394.935 834.105 393.951C826.559 392.965 824.139 393.107 823.284 391.561C822.43 390.015 824.992 384.673 825.562 383.267C826.132 381.861 827.486 367.7 828.835 367.4C831.466 366.813 833.849 367.852 833.849 367.852L848.075 369.112" fill="#5E5683"/>
<path d="M823.71 387.885C824.575 389.412 827.004 389.277 834.521 390.257C842.068 391.241 848.333 398.832 857.587 400.66C866.843 402.487 877.949 399.254 879.372 398.271C879.541 398.155 879.71 397.975 879.864 397.751C880.461 399.804 879.695 401.454 878.958 401.964C877.534 402.947 866.427 406.18 857.173 404.352C847.917 402.525 841.652 394.935 834.105 393.951C826.559 392.965 824.139 393.107 823.284 391.561C822.901 390.867 823.207 389.408 823.71 387.885Z" fill="#524583"/>
<path d="M850.226 361.005L848.772 370.055C848.772 370.055 851.904 370.055 851.334 371.037C850.764 372.021 836.24 374.411 829.976 369.211C829.976 369.211 832.823 365.641 833.852 359.036C834.017 357.979 850.226 361.005 850.226 361.005" fill="#FFB28E"/>
<path d="M855.51 372.583C859.231 377.563 866.918 388.235 873.547 391.561C873.838 391.707 874.091 391.857 874.359 392.007C871.709 393.195 865.392 393.881 862.756 393.881C859.415 393.881 845.86 382.699 847.158 378.116C848.213 374.403 853.529 372.987 855.51 372.583" fill="#5E88B0"/>
<path d="M901.904 284.727H690.12C686.231 284.727 682.751 287.108 681.387 290.703L678.068 299.445H913.954L910.635 290.703C909.273 287.108 905.792 284.727 901.904 284.727" fill="#FFC445"/>
<path d="M738.411 253.048C738.411 253.048 719.017 257.914 716.248 269.085C707.948 302.574 732.848 348.89 730.683 364.21C730.683 364.21 736.536 372.405 753.458 364.21C753.458 364.21 748.005 326.089 745.841 317.896C743.675 309.7 737.735 284.406 782.747 284.406C827.759 284.406 832.946 290.462 837.21 296.518C841.473 302.574 832.528 359.222 832.528 359.222C832.528 359.222 841.834 365.992 851.578 364.21C851.578 364.21 878.284 279.417 872.87 268.73C867.457 258.041 865.237 255.47 839.308 254.902C813.38 254.334 738.411 253.048 738.411 253.048" fill="#E86354"/>
<path d="M779.62 148.328L778.583 145.444C778.583 145.444 771.112 152.738 750.249 161.927C747.825 162.994 746.019 165.08 745.356 167.618C741.757 181.428 730.543 226.528 733.939 239.947C737.97 255.86 740.791 255.86 740.791 255.86C740.791 255.86 744.2 243.838 755.597 244.236L755.935 240.572C755.935 240.572 753.911 240.406 753.911 237.74C753.911 235.075 756.61 214.256 756.61 214.256C756.61 214.256 758.804 225.415 759.648 235.075C760.491 244.735 761.721 255.86 761.721 255.86L771.247 254.106C771.247 254.106 775.442 195.768 778.227 190.268C781.013 184.768 766.621 175.83 779.62 148.328" fill="#93AD89"/>
<path d="M767.88 184.735C767.879 184.76 767.877 184.787 767.876 184.812C769.836 187.216 773.507 188.239 773.507 188.239C773.507 188.239 770.92 245.057 771.154 254.533L773.482 254.105C773.482 254.105 777.676 195.768 780.462 190.268C783.247 184.768 768.855 175.829 781.855 148.328L780.817 145.444C780.817 145.444 779.803 146.431 777.498 148.128C774.926 154.667 768.604 171.871 767.88 184.735Z" fill="#FFC7D2"/>
<path d="M812.676 149.039C807.885 147.592 799.181 145.277 790.825 144.656C789.051 144.584 787.345 144.537 785.771 144.507C783.203 144.564 780.759 144.848 778.584 145.444C778.584 145.444 778.031 146.748 777.183 148.937C776.847 159.333 777.45 184.407 791.006 185.477C808.063 186.824 814.736 154.295 812.676 149.039" fill="white"/>
<path d="M764.799 183.436C766.204 186.837 771.273 188.239 771.273 188.239C771.273 188.239 768.686 245.057 768.92 254.533L771.247 254.105C771.247 254.105 775.442 195.768 778.227 190.268C781.013 184.768 766.621 175.829 779.621 148.328L778.583 145.444C778.583 145.444 777.275 146.717 774.242 148.865C771.147 157.68 763.659 180.677 764.799 183.436" fill="#A5D0B3"/>
<path d="M836.992 234.048C835.59 237.095 832.528 238.48 832.528 238.48C832.528 238.48 830.87 217.429 832.528 213.551C832.528 213.551 838.395 231.001 836.992 234.048ZM841.072 169.109C836.137 158.149 816.4 150.233 816.4 150.233C816.4 150.233 825.035 170.328 808.073 187.987C808.073 187.987 809.616 249.487 815.167 262.883C820.717 260.141 829.353 262.883 829.353 262.883C852.483 261.968 856.8 240.048 856.8 240.048C858.65 216.909 846.006 180.071 841.072 169.109" fill="#93AD89"/>
<path d="M821.706 180.584C823.434 176.535 818.361 155.688 817.486 152.172C817.361 151.948 816.955 150.609 816.85 150.42C815.352 149.804 813.977 149.437 813.977 149.437C813.977 149.437 822.372 169.329 807.07 186.651C806.272 187.553 805.857 188.724 805.895 189.924C806.17 199.096 807.537 238.457 811.155 256.425C812.786 256.333 814.27 256.203 815.546 256.024C814.116 233.529 812.047 189.671 812.047 189.671C812.047 189.671 819.818 185.011 821.706 180.584" fill="#FFC7D2"/>
<path d="M808.073 187.987C808.073 187.987 809.616 249.487 815.167 262.883C816.101 262.421 817.126 262.127 818.178 261.936C816.772 242.499 814.283 189.671 814.283 189.671C814.283 189.671 822.053 185.011 823.94 180.584C825.828 176.157 819.591 151.657 819.59 151.656C817.648 150.733 816.4 150.233 816.4 150.233C816.4 150.233 825.035 170.328 808.073 187.987" fill="#A5D0B3"/>
<path d="M757.95 234.378L760.989 232.104C760.989 232.104 780.405 237.45 782.947 249.326C782.947 249.326 795.298 237.8 806.959 237.319L807.545 241.954C807.545 241.954 786.516 256.727 784.755 257.306C782.995 257.886 776.442 257.306 776.442 257.306L757.95 234.378Z" fill="#9183AB"/>
<path d="M812.584 248.025V238.48C812.584 238.48 786.463 244.722 783.802 255.397H779.621C779.621 255.397 779.611 236.101 756.464 234.228L754.37 258.694C754.37 258.694 776.405 258.449 779.621 275.577H784.056C784.056 275.577 799.37 257.08 813.977 259.069L812.584 248.025Z" fill="#A090BC"/>
<path d="M823.94 247.462C823.94 247.462 829.707 248.568 828.586 261.059C828.586 261.059 823.461 264.693 822.34 266.433C821.217 268.173 814.113 266.815 809.551 265.151C809.551 265.151 808.757 263.845 809.551 262.883C809.551 262.883 806.798 263.344 806.211 262.531C805.457 261.491 806.151 259.585 806.151 259.585C806.151 259.585 804.02 259.515 803.569 259.053C803.115 258.589 803.334 256.388 803.804 256.156L795.996 255.86C795.996 255.86 794.058 253.141 796.641 252.331C799.224 251.519 806.414 250.707 808.073 249.955C809.733 249.2 813.378 246.019 814.422 245.701C815.468 245.384 818.52 245.304 819.485 245.701C820.449 246.097 820.28 247.871 823.94 247.462Z" fill="#FFB28E"/>
<path d="M816.347 252.723C812.394 255.844 803.804 256.156 803.804 256.156C803.804 256.156 807.133 257.131 811.043 255.86C814.956 254.588 816.347 252.723 816.347 252.723" fill="#F2998F"/>
<path d="M819.016 257.794C813.678 259.842 806.151 259.585 806.151 259.585C806.151 259.585 809.004 260.27 812.014 260.004C815.023 259.737 819.016 257.794 819.016 257.794" fill="#F2998F"/>
<path d="M819.016 262.387L809.551 262.883C809.551 262.883 811.433 263.213 813.262 263.28C815.09 263.347 819.016 262.387 819.016 262.387Z" fill="#F2998F"/>
<path d="M823.94 247.461C823.94 247.461 824.199 244.163 824.671 243.077C825.142 241.993 832.528 238.48 832.528 238.48L832.401 236.717C832.401 236.717 825.25 240.347 824.297 241.475C823.343 242.604 822.815 247.461 822.815 247.461H823.94Z" fill="#6A9F89"/>
<path d="M777.833 145.444C777.833 145.444 763.713 114.144 785.98 113.583C785.98 113.583 792.285 105.767 803.719 108.951C815.156 112.135 819.765 123.924 818.821 132.4C818.356 136.575 815.47 148.134 811.721 149.82C807.972 151.506 777.833 145.444 777.833 145.444Z" fill="#E86354"/>
<path d="M781.92 155.757C781.92 155.757 779.388 179.519 792.055 180.519C804.722 181.519 809.652 157.259 808.073 153.507C806.496 149.755 781.92 155.757 781.92 155.757Z" fill="#FFA08F"/>
<path d="M812.428 147.865C812.428 147.865 805.014 170.757 792.47 170.757C778.406 170.757 777.456 140.649 777.456 140.649C777.456 140.649 782.9 136.887 783.78 130.083C783.78 130.083 791.991 141.808 810.611 133.412C810.611 133.412 809.551 143.792 812.428 147.865" fill="#FFB28E"/>
<path d="M755.597 244.236L755.385 246.816C755.385 246.816 761.903 250.167 768.267 249.708C768.267 249.708 768.949 250.581 768.255 252.069C767.56 253.555 760.92 253.163 760.108 253.048C760.108 253.048 760.789 254.911 760.456 256.184C760.108 257.512 757.133 257.145 757.133 257.145C757.133 257.145 758.111 259.96 756.463 260.188C754.816 260.416 752.962 260.063 750.761 258.695C750.761 258.695 750.01 261.421 747.462 260.279C744.912 259.133 740.791 255.86 740.791 255.86C740.791 255.86 744.448 243.492 755.597 244.236" fill="#FFB28E"/>
<path d="M749.783 254.534C749.783 254.534 753.187 256.459 757.133 257.146C757.133 257.146 755.953 257.174 755.434 257.146C754.917 257.12 750.449 255.47 750.286 255.094C750.124 254.716 749.783 254.534 749.783 254.534" fill="#F2998F"/>
<path d="M748.288 257.512C749.034 257.991 749.974 258.516 750.761 258.695C750.761 258.695 749.795 258.756 749.192 258.352C748.589 257.95 748.288 257.512 748.288 257.512" fill="#F2998F"/>
<path d="M760.109 253.048C760.109 253.048 754.682 252.328 750.761 250.625C750.761 250.625 754.393 252.636 756.158 253.048C758.258 253.537 760.109 253.048 760.109 253.048Z" fill="#F2998F"/>
<path d="M837.027 234.082C836.617 234.974 836.063 235.72 835.486 236.335C835.488 236.334 844.882 231.066 846.916 222.615C846.916 222.615 840.026 229.519 837.241 232.779C837.231 233.332 837.166 233.78 837.027 234.082Z" fill="#819D89"/>
<path d="M754.679 239.939C746.886 236.626 741.78 223.8 741.78 223.8C741.78 223.8 745.484 240.08 755.935 240.572L754.679 239.939Z" fill="#819D89"/>
<path d="M783.802 255.397L784.056 275.577H779.621V255.397H783.802Z" fill="#A0B1E4"/>
<path d="M727.649 372.583C723.928 377.563 716.242 388.235 709.613 391.561C709.321 391.707 709.069 391.857 708.801 392.007C711.451 393.195 717.766 393.881 720.403 393.881C723.745 393.881 737.301 382.699 736.001 378.116C734.947 374.403 729.631 372.987 727.649 372.583" fill="#5E88B0"/>
<path d="M700.61 299.445L676.022 383.232H683.725L712.502 299.445H700.61" fill="#FF9C45"/>
<path d="M891.412 299.445L916 383.232H908.299L879.521 299.445H891.412" fill="#FF9C45"/>
<path d="M792.944 160.227C792.572 160.227 792.233 159.981 792.133 159.609C792.017 159.167 792.286 158.715 792.733 158.599C793.35 158.44 793.503 158.16 793.553 158.069C793.937 157.371 793.458 155.952 793.3 155.485C792.635 153.516 793.195 148.164 793.261 147.561C793.311 147.105 793.71 146.772 794.186 146.827C794.646 146.876 794.978 147.284 794.929 147.739C794.76 149.28 794.425 153.583 794.89 154.963C795.293 156.157 795.672 157.679 795.028 158.856C794.662 159.521 794.034 159.973 793.157 160.2C793.086 160.217 793.015 160.227 792.944 160.227" fill="#DD8170"/>
<path d="M793.627 166.531C790.467 166.531 788.151 165.287 788.028 165.219C787.624 164.997 787.479 164.496 787.704 164.096C787.925 163.697 788.434 163.549 788.841 163.771C788.873 163.789 792.158 165.531 795.979 164.596C796.423 164.489 796.884 164.756 796.993 165.2C797.105 165.644 796.832 166.092 796.383 166.203C795.42 166.437 794.49 166.531 793.627 166.531" fill="#DD8170"/>
<path d="M267.254 29.2027C267.254 29.2027 267.448 40.7307 270.472 50.3494C273.495 59.9667 270.472 67.9268 270.472 67.9268H285.589C285.589 67.9268 292.699 50.4281 290.488 48.5641C288.277 46.7001 280.696 20.9107 280.696 20.9107C280.696 20.9107 271.764 20.4934 267.254 29.2027" fill="#FF9011"/>
<path d="M311.129 168.457C311.129 168.457 310.794 175.416 313.947 180.507C317.097 185.597 249.629 176.336 249.629 176.336C249.629 176.336 250.102 159.96 252.448 157.797C254.795 155.635 311.129 168.457 311.129 168.457" fill="#F99383"/>
<path d="M283.197 64.9986C283.197 64.9986 269.625 61.9986 263.523 66.7679C257.423 71.5359 252.674 83.1239 250.831 90.9346C250.831 90.9346 256.33 99.7546 261.568 102.34C256.33 128.984 249.346 142.848 249.637 160.372C249.637 160.372 272.232 160.013 283.197 165.795C294.161 171.576 315.695 171.001 315.695 171.001C315.695 171.001 311.912 153.116 311.62 148.125C311.33 143.135 312.494 132.327 312.494 132.327L320.914 118.683L323.75 120.008C323.75 120.008 338.476 89.4466 328.321 82.1213C318.165 74.7946 310.159 72.096 310.159 72.096L283.197 64.9986" fill="#63D7FF"/>
<path d="M233.696 56.0599L252.327 104.688L219.349 108.643L196.902 60.9972L233.696 56.0599" fill="#FF4B72"/>
<path d="M206.963 82.3508C208.639 82.1601 214.531 98.4161 214.531 98.4161C214.531 98.4161 218.317 96.4028 218.706 96.4028C219.094 96.4028 223.128 95.4068 224.615 95.6361C226.103 95.8655 226.152 97.0148 226.307 97.6281C226.462 98.2401 222.351 98.3161 221.187 98.6988C220.024 99.0828 215.492 101.693 216.85 103.013C218.209 104.331 228.634 99.1588 228.634 99.1588C228.634 99.1588 229.177 99.0828 229.566 100.537C229.954 101.992 226.899 103.164 227.057 104.256C227.215 105.348 223.497 108.252 223.497 108.252C223.497 108.252 232.744 117.513 237.009 117.543C241.276 117.572 244.593 119.384 244.593 119.384C244.593 113.613 251.544 96.6241 251.544 96.6241L261.568 102.34C255.446 134.179 246.928 139.083 246.928 139.083C237.474 140.16 217.929 113.632 217.929 113.632C217.929 113.632 215.99 113.403 214.827 112.867C213.664 112.331 212.732 108.643 212.732 108.643C212.732 108.643 211.879 108.272 211.027 107.429C210.173 106.587 211.725 104.136 210.561 103.677C209.398 103.217 210.405 99.9241 211.104 96.4028C211.802 92.8801 206.63 85.1961 206.397 84.6601C206.164 84.1255 205.287 82.5415 206.963 82.3508" fill="#F99383"/>
<path d="M246.829 109.531C247.591 109.237 248.274 109.106 248.274 109.106L256.543 114.692L258.108 116.98C257.778 118.114 257.45 119.191 257.121 120.215C256.058 119.987 252.46 119.147 251.113 117.958C250.037 117.006 247.307 114.27 245.977 112.326C246.24 111.414 246.527 110.475 246.829 109.531" fill="#EF787D"/>
<path d="M279.085 64.3548C279.085 64.3548 271.386 90.3201 281.476 96.0468C288.823 100.217 306.639 80.6241 307.712 74.6148C308.787 68.6054 279.085 64.3548 279.085 64.3548" fill="#D2E9FF"/>
<path d="M297.349 81.8066C297.349 81.8066 298.741 85.8999 296.302 90.9346C296.302 90.9346 302.289 90.5639 302.732 86.3706C303.177 82.1786 311.16 75.6106 313.155 74.9546C315.151 74.2973 311.16 48.0279 312.046 40.3666C312.933 32.7052 312.49 6.21723 298.077 7.9679C298.077 7.9679 292.754 2.11058 280.337 7.88525C267.92 13.6599 267.254 29.2026 267.254 29.2026C267.254 29.2026 273.685 17.5999 281.889 22.6346C290.094 27.6706 297.349 81.8066 297.349 81.8066" fill="#FFCB4B"/>
<path d="M280.696 20.9108C277.261 20.4961 274.004 22.5681 273.018 25.8441C271.837 29.7721 271.136 35.7788 273.293 43.8201C277.47 59.3988 278.869 60.6428 281.866 60.5615C284.862 60.4788 285.528 60.0681 285.528 60.0681C285.528 60.0681 285.361 64.8334 284.862 64.9988C284.362 65.1628 283.198 64.9988 283.198 64.9988C283.198 64.9988 274.4 84.7134 283.549 92.9121C283.549 92.9121 294.644 90.2028 297.349 81.8068C297.349 81.8068 294.429 70.4068 297.349 62.0401C300.269 53.6734 305.916 41.1668 297.349 26.7788C289.991 14.4201 280.696 20.9108 280.696 20.9108Z" fill="#F99383"/>
<path d="M314.512 178.707C314.512 178.707 320.82 193.151 318.801 198.38C316.783 203.61 310.224 221.042 310.224 229.758C310.224 229.758 288.279 227.766 276.927 231.003L275.162 215.319C275.162 215.319 268.098 222.287 266.586 227.267C266.586 227.267 251.955 205.602 237.324 204.855L248.17 175.22C248.17 175.22 273.144 169.244 314.512 178.707" fill="#4F75C1"/>
<path d="M317.3 186.223C307.172 183.529 279.242 177.049 247.27 177.684L248.17 175.22C248.17 175.22 273.144 169.244 314.513 178.707C314.513 178.707 316.001 182.117 317.3 186.223Z" fill="#BEDBE8"/>
<path d="M303.536 353.927C299.221 278.937 307.621 234.592 307.621 234.592C307.621 234.592 290.125 228.027 281.61 233.857C281.61 233.857 279.592 279.567 282.285 299.795C284.978 320.02 290.761 358.615 290.761 358.615L303.536 353.927" fill="#F99383"/>
<path d="M278.262 237.495C292.147 232.741 309.051 238.635 311.747 235.593C314.442 232.552 310.225 229.757 310.225 229.757C310.225 229.757 288.279 227.765 276.927 231.003C276.927 231.003 275.739 231.432 276.124 233.323C276.509 235.213 278.262 237.495 278.262 237.495Z" fill="#BEDBE8"/>
<path d="M266.585 227.267C266.585 227.267 251.954 205.602 237.324 204.855C237.324 204.855 235.493 203.771 234.531 204.855C233.568 205.939 234.531 209.742 234.531 209.742C234.531 209.742 237.34 207.78 239.713 209.535C242.084 211.292 263.629 231.879 263.629 231.879C263.629 231.879 265.112 234.183 266.002 233.323C266.891 232.464 268.472 228.756 267.781 228.075C267.089 227.391 266.585 227.267 266.585 227.267" fill="#BEDBE8"/>
<path d="M239.713 209.535C244.893 209.331 260.386 227.221 260.386 227.221C260.386 227.221 256.585 249.701 248.714 259.409C248.714 259.409 264.457 306.512 264.457 345.049H251.026C249.711 323.787 226.767 261.329 225.757 255.017C224.748 248.704 234.53 209.741 239.713 209.535Z" fill="#F99383"/>
<path d="M275.025 215.324L275.3 215.312L274.383 194.439L274.108 194.451L275.025 215.324Z" fill="black"/>
<path d="M320.914 118.683C320.914 118.683 307.044 113.303 298.323 114.063C298.323 114.063 292.875 125.077 292.008 130.268C292.008 130.268 270.333 113.519 267.254 112.376C264.176 111.232 260.209 104.2 258.22 99.956C256.232 95.7107 244.647 84.9267 241.172 85.2534C237.696 85.58 241.673 88.3187 241.673 88.3187C241.673 88.3187 251.015 95.8747 250.591 96.624C250.166 97.3747 250.62 97.6254 249.629 97.2067C248.638 96.7867 236.492 87.564 233.434 88.4867C230.376 89.408 234.537 90.9347 234.537 90.9347C234.537 90.9347 246.768 97.7094 247.024 99.3027C247.278 100.896 244.054 99.964 242.186 99.2094C240.318 98.4547 236.265 99.5747 235.881 100.279C235.498 100.983 235.661 101.631 236.484 101.685C237.306 101.74 239.882 101.252 240.649 101.577C241.416 101.901 245.361 104.336 245.033 105.148C244.705 105.96 239.991 105.688 239.882 105.905C239.772 106.121 239.936 108.393 242.128 108.611C244.32 108.827 245.307 108.827 245.307 108.827C245.307 108.827 249.699 117.763 254.098 118.437C258.497 119.113 260.55 119.5 260.941 120.464C261.332 121.429 282.825 150.668 297.879 149.703C297.879 149.703 319.5 126.26 320.914 118.683" fill="#F99383"/>
<path d="M227.24 103.668C227.24 103.668 224.05 107.033 221.115 107.197C218.179 107.361 217.481 106.915 217.481 106.915C220.866 107.064 227.24 103.668 227.24 103.668Z" fill="#EF787D"/>
<path d="M220.113 109.959C221.391 109.736 223.497 108.252 223.497 108.252C223.497 108.252 223.129 109.551 222.687 109.648C222.247 109.744 220.113 109.959 220.113 109.959" fill="#EF787D"/>
<path d="M213.147 101.181C212.908 100.652 212.96 100.027 213.309 99.5601C213.849 98.8361 214.531 98.4161 214.531 98.4161C214.531 98.4161 213.014 100.073 213.398 101.733L213.147 101.181" fill="#EF787D"/>
<path d="M247.27 124.157C246.836 121.461 244.593 119.384 244.593 119.384C244.593 119.384 246.243 122.789 246.345 123.396C246.449 124.003 247.27 124.157 247.27 124.157" fill="#EF787D"/>
<path d="M297.505 136.812C297.098 134.976 292.008 130.268 292.008 130.268C292.008 130.268 296.245 131.833 297.505 136.812Z" fill="#EF787D"/>
<path d="M247.766 351.272C247.766 351.272 243.802 354.588 242.922 358.932C242.041 363.276 235.002 370.01 227.743 372.616C220.482 375.222 227.743 381.955 227.743 381.955C227.743 381.955 269.762 369.792 270.643 365.014C271.523 360.236 270.643 358.28 270.643 358.28C270.643 358.28 268.178 354.128 266.753 351.272C265.672 349.106 247.766 351.272 247.766 351.272Z" fill="#E86354"/>
<path d="M270.611 361.819C270.767 360.974 270.868 360.22 270.933 359.534C271.077 360.596 271.129 362.371 270.643 365.014C269.762 369.792 227.742 381.955 227.742 381.955C227.742 381.955 226.709 380.996 225.812 379.664C233.715 377.324 269.766 366.412 270.611 361.819" fill="#A25254"/>
<path d="M267.951 345.049C267.951 345.049 252.507 343.193 247.767 345.049C243.026 346.904 247.767 351.272 247.767 351.272H266.753C266.753 351.272 268.859 346.625 267.951 345.049Z" fill="#BEDBE8"/>
<path d="M288.157 357.503C288.157 357.503 283.341 359.424 281.124 363.277C278.909 367.129 270.086 371.343 262.363 371.571C254.642 371.797 259.396 380.439 259.396 380.439C259.396 380.439 303.162 381.899 305.515 377.633C307.869 373.368 307.654 371.24 307.654 371.24C307.654 371.24 306.191 361.767 305.745 358.615C305.406 356.223 288.157 357.503 288.157 357.503Z" fill="#E86354"/>
<path d="M306.499 374.591C306.917 373.837 307.252 373.151 307.533 372.52C307.331 373.575 306.817 375.276 305.515 377.633C303.162 381.899 259.396 380.439 259.396 380.439C259.396 380.439 258.721 379.209 258.293 377.667C266.54 377.891 304.239 378.689 306.499 374.591" fill="#A25254"/>
<path d="M306.175 354.068C306.175 354.068 290.694 352.555 285.996 354.515C281.299 356.474 286.137 360.736 286.137 360.736L304.321 360.359C305.566 360.334 306.571 359.362 306.639 358.134C306.718 356.69 306.689 354.915 306.175 354.068Z" fill="#BEDBE8"/>
<path d="M196.902 60.9976L189.525 48.1376L191.865 47.0162L199.391 60.6642L196.902 60.9976" fill="#C74372"/>
<path d="M229.839 56.5774L230.606 53.3521L201.274 57.5588L194.942 47.3734L192.557 48.2694L199.391 60.6641L229.839 56.5774" fill="#FFD977"/>
<path d="M230.606 53.3518L231.888 56.3025L229.839 56.5771L230.606 53.3518Z" fill="#FFA358"/>
<path d="M298.323 114.063H294.756C294.756 114.063 295.843 105.167 300.172 98.0442C300.172 98.0442 295.129 102.432 293.948 114.412L297.903 114.928L298.323 114.063" fill="#48B4FF"/>
<path d="M285.528 60.068C285.528 60.068 293.446 58.4841 298.65 53.1187C298.65 53.1187 292.668 60.9227 285.294 63.3521C285.463 61.9174 285.528 60.068 285.528 60.068Z" fill="#E97883"/>
<path d="M218.483 100.2C217.176 101.131 216.09 102.275 216.85 103.014C217.424 103.571 219.621 102.964 221.965 102.082C221.965 102.083 221.965 102.084 221.965 102.086C221.681 102.827 218.587 103.859 217.754 104.247C216.919 104.636 215.437 104.316 216.109 102.418C216.58 101.086 217.794 100.46 218.483 100.2" fill="#EF787D"/>
<path d="M281.974 48.9507C282.181 48.9507 282.386 48.8747 282.547 48.7227C282.874 48.4107 282.883 47.896 282.567 47.5733L282.447 47.452C281.075 46.08 281.12 45.4774 281.611 44.9907C283.233 43.388 283.672 38.2773 283.742 37.2693C283.774 36.8227 283.431 36.4333 282.978 36.4027C282.498 36.3733 282.131 36.708 282.1 37.1574C281.95 39.2574 281.369 42.9293 280.445 43.8427C279.135 45.1373 279.415 46.736 281.274 48.5947L281.381 48.7027C281.543 48.868 281.759 48.9507 281.974 48.9507Z" fill="#C56D70"/>
<path d="M282.29 54.1973C284.593 54.1973 287.656 53.108 287.798 53.0573C288.226 52.904 288.446 52.4373 288.292 52.016C288.134 51.5933 287.66 51.3786 287.236 51.528C286.266 51.8773 283.41 52.7413 281.793 52.5453C281.347 52.4933 280.931 52.808 280.877 53.2533C280.822 53.7 281.145 54.1053 281.596 54.1586C281.816 54.1853 282.048 54.1973 282.29 54.1973" fill="#C56D70"/>
<path d="M640.015 10.8973C640.015 10.8973 646.384 0.893378 656.807 8.32404C667.23 15.756 668.388 23.1867 667.23 31.1894C666.072 39.1934 667.084 46.052 667.591 49.768C668.097 53.484 660.723 56.628 659.198 64.0587C657.676 71.4907 662.171 77.2067 659.198 78.064C656.227 78.9213 604.404 76.6347 604.404 76.6347C604.404 76.6347 603.537 63.2014 611.931 54.9134C620.327 46.624 620.381 24.9027 624.409 19.4707C628.433 14.0414 634.514 8.32401 640.015 10.8973" fill="#5E5683"/>
<path d="M656.698 367.076C656.698 367.076 662.324 379.424 658.993 384.788C655.664 390.15 646.027 391.534 642.874 388.766C639.719 385.999 639.57 363.24 642.253 361.231C644.935 359.223 656.698 367.076 656.698 367.076" fill="#FF4B72"/>
<path d="M644.64 242.943C644.64 242.943 641.52 267.028 641.971 286.763C642.423 306.499 642.795 362.765 641.971 365.285C641.145 367.804 641.083 380.1 647.964 380.273C654.845 380.448 657.668 371.216 657.315 368.779C656.962 366.34 654.845 365.817 654.316 360.591C653.786 355.365 657.95 322.548 661.417 313.992C664.883 305.436 662.11 274.291 663.15 271.896C664.19 269.5 667.31 236.3 667.31 236.3L644.64 242.943" fill="#FFB28E"/>
<path d="M633.987 362.988C633.987 362.988 640.595 386.172 630.607 389.459C620.618 392.744 616.938 386.518 616.765 382.712C616.59 378.907 616.808 365.323 619.501 363.032C622.196 360.742 633.987 362.988 633.987 362.988" fill="#FF4B72"/>
<path d="M635.763 236.3C635.763 236.3 631.256 277.713 629.523 288.665C627.789 299.617 632.837 350.091 633.741 357.901C634.646 365.711 633.021 378.203 627.143 378.203C621.268 378.203 618.598 367.941 619.502 363.032C620.406 358.124 617.695 344.737 617.015 340.051C616.337 335.365 608.84 290.515 611.507 281.631C614.173 272.745 607.312 233.88 607.312 233.88L635.763 236.3" fill="#FFB28E"/>
<path d="M670.18 152.611C670.18 152.611 685.62 190.865 677.752 232.939C677.752 232.939 657.467 258.315 595.31 228.597C595.31 228.597 593.782 217.912 598.18 210.9C602.577 203.888 611.351 162.613 611.58 155.533C611.809 148.453 670.18 152.611 670.18 152.611Z" fill="#FF77B1"/>
<path d="M646.391 67.4523C646.391 67.4523 646.43 65.9536 649.821 67.4523C653.211 68.9496 657.679 71.4189 662.765 72.6949C667.85 73.9709 673.706 84.0109 675.863 84.7709C678.021 85.5322 689.284 123.144 693.97 128.502C693.97 128.502 675.752 136.128 663.819 128.343C663.819 128.343 665.631 145.548 670.18 152.611C670.18 152.611 635.508 163.814 611.581 155.534C611.581 155.534 612.321 137.512 611.581 135.564C610.84 133.616 592.092 97.1736 595.792 78.2576C595.792 78.2576 599.225 66.4376 618.97 66.4203C638.714 66.4029 642.889 70.4603 644.64 68.9563C646.391 67.4523 646.391 67.4523 646.391 67.4523" fill="#61D1FF"/>
<path d="M629.677 43.2173C629.677 43.2173 624.96 62.0093 618.97 66.42C623.701 71.6427 649.169 76.1627 646.391 67.452C646.391 67.452 644.089 67.4907 643.742 65.092C643.395 62.692 644.264 51.0373 644.264 51.0373L629.677 43.2173Z" fill="#F99D83"/>
<path d="M645.816 17.8815C645.816 17.8815 663.313 17.9895 658.294 39.2068C658.294 39.2068 657.98 45.4015 654.686 47.8802C654.686 47.8802 647.313 55.0042 644.802 59.6508C642.293 64.2975 628.33 63.3668 628.33 44.9375C628.33 44.9375 624.408 39.5175 624.408 36.7295C624.408 32.8562 627.074 28.9855 629.27 31.4628C629.27 31.4628 635.39 19.3242 645.117 17.8815H645.816" fill="#FFB28E"/>
<path d="M632.786 115.641C630.023 117.671 632.281 131.976 635.998 132.648C635.998 132.648 638.835 132.115 637.138 122.896C636.445 119.127 634.498 114.383 632.786 115.641" fill="#4DB8FF"/>
<path d="M635.998 132.648C635.998 132.648 623.514 140.555 618.136 139.515C613.585 138.632 611.581 135.564 611.581 135.564L611.855 138.144C611.855 138.144 615.481 143.453 625.28 139.129C635.078 134.804 635.998 132.648 635.998 132.648" fill="#61BFFF"/>
<path d="M674.954 75.4589L651.52 109.806C651.52 109.806 676.035 118.651 685.976 124.042L702.511 113.018L725.305 78.2575L707.586 87.4055L674.954 75.4589" fill="#FF4B72"/>
<path d="M632.786 115.642C632.786 115.642 645.449 108.675 646.602 106.006C647.754 103.335 649.418 102.719 650.251 102.719C651.083 102.719 657.129 101.406 661.823 102.719C666.515 104.031 669.012 106.496 668.312 106.99C667.614 107.482 661.423 105.116 659.425 105.608C657.429 106.102 653.136 107.284 653.136 107.778C653.136 108.27 664.718 108.718 665.718 108.888C666.716 109.059 671.808 109.552 671.608 111.326C671.408 113.1 667.614 112.502 667.614 112.502C667.614 112.502 667.614 115.403 663.819 115.435C663.819 115.435 663.419 117.734 658.827 117.536L655.032 117.548C655.032 117.548 655.417 119.544 654.817 120.038C654.219 120.53 651.638 121.283 647.743 120.79C643.849 120.298 633.178 129.142 633.178 129.142C633.178 129.142 629.511 122.323 632.786 115.642" fill="#FFB28E"/>
<path d="M651.52 112.501C657.884 111.425 667.614 112.501 667.614 112.501C667.614 112.501 652.518 112.28 651.362 112.852L651.52 112.501Z" fill="#EE9383"/>
<path d="M663.818 115.435L663.61 115.638C661.603 115.268 651.113 115.23 651.113 115.23C658.809 114.52 663.818 115.435 663.818 115.435Z" fill="#EE9383"/>
<path d="M655.032 117.548L655.106 118.062C654.802 117.898 650.117 117.264 650.117 117.264C651.114 117.123 655.032 117.548 655.032 117.548" fill="#EE9383"/>
<path d="M693.016 127.131C693.016 127.131 698.791 121.252 702.746 119.596C706.7 117.939 711.974 112.496 711.974 110.84C711.974 109.184 713.172 106.818 712.933 105.399C712.693 103.979 714.763 102.604 712.983 101.311C711.202 100.019 704.054 99.1655 701.538 101.146C701.538 101.146 700.459 103.58 701.658 103.531C702.858 103.482 710.056 102.44 710.297 103.979C710.536 105.516 705.99 107.41 703.529 107.055C701.068 106.7 699.168 106.368 698.69 106.842C698.209 107.315 698.31 108.475 700.109 109.303C700.109 109.303 698.551 109.776 698.791 110.486C699.031 111.195 699.87 112.023 699.87 112.023C699.87 112.023 698.478 113.535 698.597 114.148C698.717 114.762 698.128 115.94 698.128 115.94L690.289 121.49C690.289 121.49 691.434 125.91 693.016 127.131" fill="#FFB28E"/>
<path d="M708.957 108.511L708.469 109.303C702.414 110.713 700.109 109.303 700.109 109.303C700.325 109.407 707.751 109.929 708.957 108.511" fill="#EE9383"/>
<path d="M708.096 111.687L707.484 112.502C702.641 113.6 699.87 112.023 699.87 112.023C699.87 112.023 706.774 113.275 708.096 111.687Z" fill="#EE9383"/>
<path d="M722.209 79.8546L720.452 75.4586C720.452 75.4586 711.035 80.1693 707.485 83.12C707.485 83.12 691.083 73.1186 680.532 72.3573L677.753 76.4826L707.586 87.4053L722.209 79.8546" fill="#FFD977"/>
<path d="M609.699 85.6175C612.128 86.1708 622.341 115.529 624.331 116.783C626.322 118.036 631.18 115.676 631.558 115.435C631.935 115.193 632.786 115.641 632.786 115.641C632.786 115.641 625.839 119.365 623.789 117.548C619.957 114.155 614.482 90.8028 609.255 85.9748L609.699 85.6175" fill="#61BFFF"/>
<path d="M641.374 89.5615C643.154 89.5615 644.806 88.9615 646.298 87.7722C652.802 82.5868 654.253 67.9828 654.313 67.3642L653.571 67.2949C653.558 67.4442 652.09 82.2108 645.83 87.2002C644.233 88.4735 642.44 89.0042 640.496 88.7735C629.455 87.4722 618.39 69.9228 617.888 64.7975L617.147 64.8668C617.663 70.1335 629.046 88.1642 640.407 89.5028C640.734 89.5415 641.057 89.5615 641.374 89.5615" fill="#4F75C1"/>
<path d="M666.375 115.435L667.614 115.925C664.202 118.656 663.819 128.343 663.819 128.343L662.936 127.697C663.138 123.631 666.375 115.435 666.375 115.435Z" fill="#61BFFF"/>
<path d="M633.825 179.211C633.825 179.211 644.244 174.699 646.073 164.052L650.117 165.147C650.117 165.147 649.136 181.195 635.998 184.624L637.52 180.655L633.825 179.211Z" fill="#4F548A"/>
<path d="M672.577 151.399C672.577 151.399 631.846 161.526 609.255 154.127C609.255 154.127 604.944 162.067 610.468 163.635C619.061 166.075 674.404 167.842 674.404 157.518C674.404 149.976 672.577 151.399 672.577 151.399" fill="#4F75C1"/>
<path d="M655.032 195.271C666.552 169.645 650.117 154.127 650.117 154.127C650.117 154.127 654.604 150.156 657.467 152.863C660.33 155.571 671.088 178.768 659.13 197.215L658.503 194.369L655.032 195.271Z" fill="#4F548A"/>
<path d="M659.73 376.828C660.231 379.784 660.242 382.778 658.993 384.788C655.664 390.15 646.027 391.534 642.874 388.766C641.957 387.963 641.254 385.888 640.784 383.304C653.743 391.106 658.546 380.387 659.73 376.828" fill="#8D4B72"/>
<path d="M629.556 386.69C632.474 386.236 635.329 381.648 635.987 380.524C635.564 384.71 634.107 388.306 630.608 389.459C620.619 392.744 616.939 386.518 616.766 382.712C619.393 387.21 626.227 387.21 629.556 386.69Z" fill="#8D4B72"/>
<path d="M621.538 175.819C621.538 175.819 618.248 224.66 609.43 234.708C607.673 234.032 605.877 233.307 604.04 232.531C607.681 222.417 616.754 176.928 621.538 175.819" fill="#CC5EB1"/>
<path d="M644.64 185.689C644.64 185.689 645.366 183.385 646.921 184.624C648.204 185.645 644.023 229.895 640.772 242.66C639.951 242.58 639.116 242.491 638.263 242.383C637.67 229.156 644.64 185.689 644.64 185.689" fill="#CC5EB1"/>
<path d="M665.718 197.215C668.543 199.133 671.232 224.86 671.802 237.555C670.812 238.12 669.682 238.692 668.415 239.243C667.184 230.412 662.429 194.985 665.718 197.215Z" fill="#CC5EB1"/>
<path d="M640.168 90.1961C640.168 92.2215 640.901 93.8628 641.804 93.8628C642.708 93.8628 643.441 92.2215 643.441 90.1961C643.441 88.1708 642.708 86.5281 641.804 86.5281C640.901 86.5281 640.168 88.1708 640.168 90.1961Z" fill="#FFD977"/>
<path d="M643.645 52.4829C643.876 52.4829 644.108 52.4376 644.332 52.3336C645.101 51.9762 645.425 51.1189 645.297 49.7869C645.063 47.3629 646.486 42.1936 646.501 42.1402C646.627 41.6909 646.359 41.2269 645.903 41.1042C645.446 40.9802 644.978 41.2456 644.852 41.6949C644.791 41.9189 643.33 47.2149 643.595 49.9469C643.641 50.4296 643.599 50.6749 643.565 50.7842C643.357 50.7376 642.907 50.5082 642.408 50.0162C642.074 49.6856 641.533 49.6856 641.199 50.0162C640.865 50.3456 640.865 50.8802 641.199 51.2096C641.541 51.5469 642.587 52.4829 643.645 52.4829Z" fill="#DD8170"/>
<path d="M641.805 57.1802C642.262 57.1802 642.642 56.8215 642.657 56.3642C642.674 55.8988 642.305 55.5095 641.832 55.4922C641.797 55.4909 638.308 55.3495 636.63 53.5308C636.31 53.1868 635.771 53.1615 635.421 53.4762C635.071 53.7908 635.047 54.3242 635.366 54.6682C637.533 57.0175 641.604 57.1748 641.775 57.1802C641.785 57.1802 641.794 57.1802 641.805 57.1802" fill="#DD8170"/>
<path d="M174.902 268.507C174.902 268.507 139.34 275.08 138.463 279.915C137.587 284.748 139.945 325.116 146.724 328.499C153.501 331.883 186.184 351.131 186.833 349.32C187.483 347.511 174.902 268.507 174.902 268.507" fill="#CFC4E4"/>
<path d="M127.469 294.328C127.469 294.328 131.171 291.24 130.942 290.737C126.787 281.617 108.506 224.467 134.783 222.773C161.066 221.079 174.46 260.191 174.903 268.507C174.903 268.507 176.232 319.492 172.686 320.804C169.14 322.117 166.567 321.024 165.323 317.675C165.323 317.675 161.025 318.345 159.668 311.98C158.311 305.617 154.239 303.607 153.9 301.039C153.561 298.471 152.656 287.864 151.298 284.515C149.941 281.165 146.724 274.429 146.724 274.429C146.724 274.429 141.809 284.364 144.92 295.191C147.573 304.435 151.49 322.256 150.13 325.611C148.77 328.965 127.247 315.545 127.247 307.941C127.247 300.336 127.397 294.04 127.397 294.04" fill="#5E5683"/>
<path d="M125.887 234.684C125.887 234.684 120.494 270.617 137.795 277.049C137.795 277.049 146.332 277.049 148.58 273.723C148.58 273.723 148.495 267.5 150.807 262.053C153.12 256.608 150.807 252.217 150.807 252.217C150.807 252.217 126.252 247.649 125.887 234.684Z" fill="#F99383"/>
<path d="M69.7968 353.133C69.7968 353.133 45.7226 377.997 38.7328 380.301C31.743 382.607 48.7003 385.615 52.473 382.741C56.2451 379.868 76.1653 363.184 76.1653 363.184L72.8451 352.159L69.7968 353.133" fill="#E68583"/>
<path d="M170.089 387.537C170.089 387.537 157.792 388.255 148.026 382.372C138.26 376.491 116.492 349.664 114.511 349.44C112.53 349.217 78.268 366.433 78.268 366.433C78.268 366.433 68.8729 356.859 69.8121 351.609C70.7506 346.359 101.897 316.684 107.665 318.085C113.435 319.489 135.509 339.255 135.509 339.255L170.089 387.537" fill="#50C6FF"/>
<path d="M36.9868 381.188C36.9868 381.188 34.0106 379.64 31.0014 381.188C27.9916 382.738 20.8979 389.015 14.2341 390.332C7.57033 391.65 0.643852 391.25 0.261366 392.203C-1.00954 395.371 2.19595 405.232 13.3746 406.506C24.5523 407.779 31.9326 404.595 35.9811 404.807C40.0298 405.019 53.5725 402.472 54.6472 398.23C55.7224 393.984 57.4424 389.634 54.6472 387.566C51.8532 385.496 36.9868 381.188 36.9868 381.188Z" fill="#FF77B1"/>
<path d="M39.231 401.485C35.1819 401.273 27.8017 404.457 16.624 403.184C7.7212 402.17 3.87891 395.711 3.32436 391.52C1.57495 391.664 0.411686 391.83 0.261366 392.203C-1.00954 395.371 2.19595 405.232 13.3746 406.506C24.5523 407.779 31.9326 404.595 35.9811 404.807C40.0298 405.019 53.5725 402.472 54.6472 398.23C54.6704 398.138 54.6947 398.047 54.7185 397.956C50.1861 400.326 42.1844 401.64 39.231 401.485" fill="#CC5EB1"/>
<path d="M36.1578 381.624C38.9676 380.132 43.2013 378.044 46.8268 376.899C52.8738 374.988 79.8017 353.133 79.8017 353.133C79.8017 353.133 95.2081 358.748 96.4169 361.615C97.627 364.48 84.2666 373.631 77.0093 376.736C69.7514 379.84 55.3097 386.336 55.182 389.317C55.182 389.317 52.3653 393.539 44.9413 391.769C37.5167 390 35.981 382.923 35.981 382.923L36.1578 381.624" fill="#F99383"/>
<path d="M187.577 347.254C186.271 347.299 178.85 353.104 178.85 353.104C178.85 353.104 130.35 321.263 120.014 318.086C109.678 314.91 78.2676 352.632 78.2676 352.632C90.2128 355.935 95.4688 369.851 95.4688 369.851C101.681 358.766 109.008 360.447 120.054 347.174C122.956 343.684 136.279 373.792 167.963 386.722C199.645 399.651 210.624 373.698 210.624 373.698C210.624 373.698 188.885 347.208 187.577 347.254Z" fill="#63D7FF"/>
<path d="M189.968 349.443C188.689 348.08 187.81 347.245 187.577 347.253C186.271 347.299 178.85 353.104 178.85 353.104C178.85 353.104 130.35 321.263 120.014 318.085C119.728 317.999 119.42 317.955 119.104 317.927C119.728 319.613 121.418 323.087 125.091 324.408C130.021 326.183 173.976 357.965 177.713 358.668C182.261 359.523 190.391 351.949 189.968 349.443" fill="#4DCBFF"/>
<path d="M175.518 268.158C175.518 268.158 166.215 276.403 168.256 293.85C170.294 311.296 172.198 314.651 172.198 314.651C172.198 314.651 186.381 321.36 190.912 320.019C190.912 320.019 191.138 339.255 186.833 349.32C186.833 349.32 198.046 357.866 207.224 371.242C212.01 378.211 216.061 369.899 215.608 364.754C215.155 359.61 213.343 340.598 212.889 332.322C212.436 324.046 207.463 269.052 175.518 268.158" fill="#CFC4E4"/>
<path d="M132.541 316.435C132.541 316.435 143.464 307.403 151.835 306.327L120.905 271.058C120.905 271.058 114.46 280.735 105.093 282.024C105.093 282.024 89.844 274.439 88.3193 277.05C86.7941 279.66 122.255 316.435 124.893 317.726C127.531 319.016 132.541 316.435 132.541 316.435Z" fill="#61BEFF"/>
<path d="M151.834 306.327L120.904 271.058C120.904 271.058 114.459 280.735 105.093 282.024C105.093 282.024 104.774 281.867 104.237 281.61C107.846 288.498 116.364 304.698 122.317 315.542C123.634 316.774 124.547 317.556 124.893 317.726C127.53 319.016 132.541 316.435 132.541 316.435C132.541 316.435 143.463 307.403 151.834 306.327" fill="#61D1FF"/>
<path d="M190.912 320.018C190.912 320.018 192.219 366.67 172.564 353.652C152.908 340.633 129.017 322.246 122.206 320.018C122.206 320.018 113.965 312.973 112.816 310.452C111.666 307.928 105.96 303.28 105.77 301.898C105.578 300.517 105.77 300.14 105.77 300.14C105.77 300.14 102.249 296.845 102.532 296.037C102.817 295.232 103.349 295.126 103.883 295.442C104.416 295.757 110.703 301.649 111.165 301.44C111.627 301.229 104.06 294.6 104.949 293.442C105.837 292.285 106.796 293.128 107.328 293.862C107.862 294.6 125.725 310.802 127.101 308.248C128.477 305.693 125.009 299.389 125.945 298.573C126.881 297.757 129.139 298.737 131.065 302.377C132.992 306.018 135.415 312.106 135.36 313.684C135.304 315.26 136.571 317.433 137.286 318.085C138.003 318.738 168.502 336.517 171.046 334.748C173.591 332.981 172.198 314.65 172.198 314.65C172.198 314.65 181.913 320.241 190.912 320.018Z" fill="#F99383"/>
<path d="M105.77 300.14C105.77 300.14 111.895 307.335 114.995 309.252L115.266 308.932C112.138 306.483 105.77 300.14 105.77 300.14" fill="#CC8183"/>
<path d="M111.166 301.44C111.166 301.44 113.468 304.137 114.254 304.321L114.511 304.033C112.893 302.756 111.166 301.44 111.166 301.44" fill="#CC8183"/>
<path d="M193.176 298.963C192.969 298.148 191.806 296.685 191.806 296.685C193.528 303.151 190.912 320.019 190.912 320.019H192.044C193.159 317.868 193.382 299.776 193.176 298.963" fill="#B7A5E4"/>
<path d="M29.5612 380.5C29.5612 380.5 37.8499 388.227 36.8486 389.127C35.8462 390.025 28.1041 382.292 28.5593 381.393C29.0152 380.493 29.5612 380.5 29.5612 380.5Z" fill="#8D4B72"/>
<path d="M25.4624 382.742C25.4624 382.742 33.4778 391.683 31.5654 392.203C29.6524 392.723 24.4774 384.851 24.7734 383.362C24.8969 382.743 25.4624 382.742 25.4624 382.742Z" fill="#8D4B72"/>
<path d="M23.9495 384.577C23.9495 384.577 25.0496 392.952 23.9495 393.653C22.8491 394.355 22.6285 384.925 23.0248 384.577C23.4209 384.231 23.9495 384.577 23.9495 384.577Z" fill="#8D4B72"/>
<path d="M15.9437 388.616C15.9437 388.616 21.7571 392.727 21.6805 393.653C21.6041 394.58 15.1788 389.857 15.3318 389.199C15.4847 388.54 15.9437 388.616 15.9437 388.616Z" fill="#8D4B72"/>
<path d="M132.552 263.564C132.247 263.564 131.936 263.503 131.638 263.345C130.694 262.843 130.28 261.607 130.375 259.565C130.608 254.513 129.036 251.635 129.02 251.607C128.868 251.335 128.968 250.989 129.243 250.839C129.519 250.687 129.868 250.784 130.022 251.057C130.094 251.184 131.77 254.216 131.52 259.617C131.453 261.092 131.694 262.088 132.182 262.348C132.709 262.629 133.611 262.115 133.823 261.961C134.079 261.777 134.439 261.833 134.624 262.087C134.81 262.34 134.753 262.693 134.497 262.877C134.373 262.965 133.501 263.564 132.552 263.564" fill="#C56D70"/>
<path d="M135.703 269.479C133.8 269.479 132.386 269.077 132.289 269.049C131.986 268.961 131.812 268.647 131.902 268.348C131.991 268.048 132.31 267.876 132.613 267.964C132.649 267.973 136.273 268.993 139.566 267.635C139.857 267.515 140.195 267.649 140.317 267.939C140.438 268.228 140.3 268.559 140.009 268.68C138.519 269.295 136.998 269.479 135.703 269.479" fill="#C56D70"/>
</g>
</g>
<defs>
<clipPath id="clip0_111:4132">
<rect width="916" height="407" fill="white"/>
</clipPath>
<clipPath id="clip1_111:4132">
<rect width="939" height="430" fill="white"/>
</clipPath>
</defs>
</svg>
