<svg width="18" height="18" viewBox="0 0 18 18" fill="none" xmlns="http://www.w3.org/2000/svg">
<path d="M13 5.19025C13 5.08561 12.917 5 12.8155 5L11.293 5.00713L9 7.82521L6.70934 5.00951L5.18454 5.00238C5.08304 5.00238 5 5.08561 5 5.19263C5 5.23781 5.01615 5.28062 5.04383 5.31629L8.04498 9.00238L5.04383 12.6861C5.01595 12.7209 5.00049 12.7646 5 12.8098C5 12.9144 5.08304 13 5.18454 13L6.70934 12.9929L9 10.1748L11.2907 12.9905L12.8131 12.9976C12.9146 12.9976 12.9977 12.9144 12.9977 12.8074C12.9977 12.7622 12.9815 12.7194 12.9539 12.6837L9.95732 9L12.9585 5.31391C12.9862 5.28062 13 5.23543 13 5.19025Z" fill="black"/>
<path d="M9 0C4.02991 0 0 4.02991 0 9C0 13.9701 4.02991 18 9 18C13.9701 18 18 13.9701 18 9C18 4.02991 13.9701 0 9 0ZM9 16.4732C4.87366 16.4732 1.52679 13.1263 1.52679 9C1.52679 4.87366 4.87366 1.52679 9 1.52679C13.1263 1.52679 16.4732 4.87366 16.4732 9C16.4732 13.1263 13.1263 16.4732 9 16.4732Z" fill="black"/>
</svg>
