<svg width="18" height="18" viewBox="0 0 18 18" fill="none" xmlns="http://www.w3.org/2000/svg">
<g clip-path="url(#clip0_173_250)">
<path d="M8.7235 0L-0.0274802 9.56946H2.24305V18H6V12.0984C6 11.5263 6.30634 11.063 6.82903 11.063H10.6132C11.1359 11.063 11.3738 11.5263 11.3738 12.0984V17.9425L15.1992 18V9.56946H17.4721L9.26985 0.597929L8.7235 0ZM19 10.9465C18.8581 11.1018 18.6902 11.2261 18.5081 11.3063C18.6902 11.2235 18.8581 11.1018 19 10.9465ZM-1.97871 10.0483C-1.86046 10.8326 -1.23606 11.4331 -0.486316 11.4331H-0.46503C-1.21951 11.4331 -1.85809 10.8378 -1.97871 10.0483ZM-1.99763 9.70923C-1.99527 9.62899 -1.98581 9.55134 -1.97398 9.47368C-1.98817 9.54875 -1.99527 9.62899 -1.99763 9.70923Z" fill="black" fill-opacity="0.15"/>
<path d="M17.716 8.96061C17.716 8.95851 17.7141 8.95851 17.7141 8.95641L17.6783 8.91226C17.6763 8.91016 17.6743 8.90595 17.6704 8.90385C17.6565 8.88703 17.6406 8.87022 17.6267 8.8534L9.9541 0.736868L9.43982 0.192403C9.32264 0.0691656 9.16417 0 8.999 0C8.83383 0 8.67537 0.0691656 8.55819 0.192403L0.371318 8.8555C0.223417 9.01125 0.114264 9.20337 0.0536128 9.41468L0.0416989 9.45883L0.0357418 9.48195L0.0297849 9.50718C0.0258136 9.52189 0.0238279 9.53661 0.0218423 9.55132C0.0218423 9.55343 0.0218422 9.55763 0.0198566 9.55973C0.00794263 9.6228 0.00198566 9.68586 0 9.75103V9.8204C0 9.83091 4.5402e-08 9.84143 0.0019857 9.85194C0.0019857 9.86245 0.00198567 9.87085 0.00397133 9.88137C0.00397133 9.89188 0.00595696 9.90239 0.00595696 9.9129C0.00595696 9.92551 0.00794263 9.93812 0.00992829 9.95074C0.00992829 9.95704 0.011914 9.96335 0.011914 9.96966L0.017871 10.0222V10.0243C0.11914 10.6655 0.657253 11.149 1.28869 11.149H2.1326V18H15.8674V11.1532H16.7292C16.8999 11.1532 17.0647 11.1175 17.2157 11.0502C17.3666 10.9829 17.5075 10.8841 17.6287 10.758C17.747 10.6331 17.8407 10.4847 17.9045 10.3212C17.9682 10.1578 18.0007 9.98253 18 9.80569C18 9.49667 17.9007 9.20026 17.716 8.96061ZM10.111 16.4864H7.41048L7.3045 12.198H10.111V16.4864ZM14.4377 9.63962V16.4864H11.3818V11.6934C11.3818 11.2289 11.0264 10.8526 10.5875 10.8526H7.41048C6.97165 10.8526 6 11.0354 6 11.5V14V16.5L3.56029 16.4864V9.63962H1.65405L9.00099 1.86784L9.45968 2.35345L16.3459 9.63962H14.4377Z" fill="black"/>
</g>
<defs>
<clipPath id="clip0_173_250">
<rect width="18" height="18" fill="white"/>
</clipPath>
</defs>
</svg>
