<svg width="19" height="19" viewBox="0 0 19 19" fill="none" xmlns="http://www.w3.org/2000/svg">
<path d="M6.77083 0C8.56657 0 10.2888 0.73497 11.5585 2.04323C12.8283 3.35148 13.5417 5.12586 13.5417 6.97601C13.5417 8.70392 12.9271 10.2923 11.9167 11.5158L12.1979 11.8056H13.0208L18.2292 17.1717L16.6667 18.7816L11.4583 13.4154V12.5676L11.1771 12.2778C9.94849 13.3583 8.38616 13.9519 6.77083 13.952C4.9751 13.952 3.25291 13.2171 1.98313 11.9088C0.713353 10.6005 0 8.82616 0 6.97601C0 5.12586 0.713353 3.35148 1.98313 2.04323C3.25291 0.73497 4.9751 0 6.77083 0V0ZM6.77083 2.14647C4.16667 2.14647 2.08333 4.29293 2.08333 6.97601C2.08333 9.65909 4.16667 11.8056 6.77083 11.8056C9.375 11.8056 11.4583 9.65909 11.4583 6.97601C11.4583 4.29293 9.375 2.14647 6.77083 2.14647Z" fill="black"/>
</svg>
