<svg width="20" height="20" viewBox="0 0 20 20" fill="none" xmlns="http://www.w3.org/2000/svg">
<path d="M18.125 1.25H1.875C0.839844 1.25 0 2.08984 0 3.125V16.875C0 17.9102 0.839844 18.75 1.875 18.75H18.125C19.1602 18.75 20 17.9102 20 16.875V3.125C20 2.08984 19.1602 1.25 18.125 1.25ZM14.8594 12.5977C15.0469 12.7852 15.0469 13.0898 14.8594 13.2773L13.2773 14.8594C13.0898 15.0469 12.7852 15.0469 12.5977 14.8594L10 12.2383L7.40234 14.8594C7.21484 15.0469 6.91016 15.0469 6.72266 14.8594L5.14063 13.2773C4.95313 13.0898 4.95313 12.7852 5.14063 12.5977L7.76172 10L5.14063 7.40234C4.95313 7.21484 4.95313 6.91016 5.14063 6.72266L6.72266 5.14063C6.91016 4.95313 7.21484 4.95313 7.40234 5.14063L10 7.76172L12.5977 5.14063C12.7852 4.95313 13.0898 4.95313 13.2773 5.14063L14.8594 6.72266C15.0469 6.91016 15.0469 7.21484 14.8594 7.40234L12.2383 10L14.8594 12.5977Z" fill="black"/>
</svg>
