<svg width="16" height="16" viewBox="0 0 16 16" fill="none" xmlns="http://www.w3.org/2000/svg">
<path d="M1 4.75C1 3.784 1.784 3 2.75 3H13.25C14.216 3 15 3.784 15 4.75V11.25C15 11.7141 14.8156 12.1592 14.4874 12.4874C14.1592 12.8156 13.7141 13 13.25 13H2.75C2.28587 13 1.84075 12.8156 1.51256 12.4874C1.18437 12.1592 1 11.7141 1 11.25V4.75ZM2.75 4C2.55109 4 2.36032 4.07902 2.21967 4.21967C2.07902 4.36032 2 4.55109 2 4.75V11.25C2 11.664 2.336 12 2.75 12H13.25C13.4489 12 13.6397 11.921 13.7803 11.7803C13.921 11.6397 14 11.4489 14 11.25V4.75C14 4.55109 13.921 4.36032 13.7803 4.21967C13.6397 4.07902 13.4489 4 13.25 4H2.75ZM9.5 6C9.36739 6 9.24021 6.05268 9.14645 6.14645C9.05268 6.24021 9 6.36739 9 6.5C9 6.63261 9.05268 6.75979 9.14645 6.85355C9.24021 6.94732 9.36739 7 9.5 7H12.5C12.6326 7 12.7598 6.94732 12.8536 6.85355C12.9473 6.75979 13 6.63261 13 6.5C13 6.36739 12.9473 6.24021 12.8536 6.14645C12.7598 6.05268 12.6326 6 12.5 6H9.5ZM9.5 9C9.36739 9 9.24021 9.05268 9.14645 9.14645C9.05268 9.24021 9 9.36739 9 9.5C9 9.63261 9.05268 9.75979 9.14645 9.85355C9.24021 9.94732 9.36739 10 9.5 10H12.5C12.6326 10 12.7598 9.94732 12.8536 9.85355C12.9473 9.75979 13 9.63261 13 9.5C13 9.36739 12.9473 9.24021 12.8536 9.14645C12.7598 9.05268 12.6326 9 12.5 9H9.5ZM5.261 7.714C5.4392 7.714 5.61566 7.6789 5.7803 7.6107C5.94494 7.54251 6.09453 7.44255 6.22054 7.31654C6.34655 7.19053 6.44651 7.04094 6.5147 6.8763C6.5829 6.71166 6.618 6.5352 6.618 6.357C6.618 6.1788 6.5829 6.00234 6.5147 5.8377C6.44651 5.67306 6.34655 5.52347 6.22054 5.39746C6.09453 5.27145 5.94494 5.17149 5.7803 5.1033C5.61566 5.0351 5.4392 5 5.261 5C4.9011 5 4.55594 5.14297 4.30146 5.39746C4.04697 5.65194 3.904 5.9971 3.904 6.357C3.904 6.7169 4.04697 7.06206 4.30146 7.31654C4.55594 7.57103 4.9011 7.714 5.261 7.714V7.714ZM3.858 8.392C3.63044 8.392 3.41221 8.4824 3.2513 8.6433C3.0904 8.80421 3 9.02244 3 9.25C3.00003 9.62242 3.12455 9.98414 3.35375 10.2777C3.58296 10.5712 3.9037 10.7797 4.265 10.87L4.318 10.884C4.938 11.039 5.585 11.039 6.204 10.884L6.258 10.871C6.6193 10.7807 6.94004 10.5722 7.16925 10.2787C7.39845 9.98514 7.52297 9.62342 7.523 9.251C7.52313 9.13824 7.50104 9.02656 7.45798 8.92235C7.41492 8.81814 7.35174 8.72343 7.27205 8.64366C7.19237 8.56388 7.09774 8.50059 6.99357 8.45741C6.88941 8.41423 6.77776 8.392 6.665 8.392H3.858Z" fill="black"/>
</svg>
