<svg width="24" height="24" viewBox="0 0 24 24" fill="none" xmlns="http://www.w3.org/2000/svg">
<path d="M4.41999 20.5792C4.28125 20.5789 4.14408 20.5498 4.0172 20.4937C3.89031 20.4376 3.7765 20.3556 3.68299 20.2532C3.58779 20.1515 3.51514 20.0309 3.46982 19.8993C3.42449 19.7676 3.40751 19.6278 3.41999 19.4892L3.66499 16.7951L14.983 5.48115L18.52 9.01715L7.20499 20.3302L4.51099 20.5752C4.48074 20.5779 4.45037 20.5793 4.41999 20.5792ZM19.226 8.31015L15.69 4.77415L17.811 2.65315C17.9039 2.56017 18.0142 2.48641 18.1355 2.43609C18.2569 2.38577 18.3871 2.35986 18.5185 2.35986C18.6499 2.35986 18.78 2.38577 18.9014 2.43609C19.0228 2.48641 19.1331 2.56017 19.226 2.65315L21.347 4.77415C21.44 4.86702 21.5137 4.97731 21.5641 5.09871C21.6144 5.22011 21.6403 5.35023 21.6403 5.48165C21.6403 5.61307 21.6144 5.74319 21.5641 5.86459C21.5137 5.98599 21.44 6.09628 21.347 6.18915L19.227 8.30915L19.226 8.31015Z" fill="black"/>
</svg>
