<svg width="146" height="96" viewBox="0 0 146 96" fill="none" xmlns="http://www.w3.org/2000/svg">
<path fill-rule="evenodd" clip-rule="evenodd" d="M32.94 1.90892C34.9593 0.697881 37.3227 0.000320642 39.8445 0.000320642H123.842C127.435 0.000320642 130.366 2.91739 130.366 6.49327C130.366 10.07 127.435 12.9862 123.842 12.9862C123.645 12.9862 123.462 13.1694 123.462 13.3649V27.8728C123.462 28.0692 123.645 28.2524 123.842 28.2524C127.435 28.2524 130.366 31.1686 130.366 34.7453C130.366 38.3221 127.435 41.2383 123.842 41.2383H39.8445C37.3227 41.2383 34.9593 40.5407 32.94 39.3288C30.9217 40.5407 28.5583 41.2383 26.0365 41.2383C18.6391 41.2383 12.6089 35.2368 12.6089 27.8728V13.3649C12.6089 6.0018 18.6391 0.000320642 26.0365 0.000320642C28.5583 0.000320642 30.9217 0.697881 32.94 1.90892Z" fill="#132C33"/>
<path fill-rule="evenodd" clip-rule="evenodd" d="M26.0367 6.49305C29.8327 6.49305 32.9403 9.58539 32.9403 13.3647C32.9403 9.58539 36.047 6.49305 39.8439 6.49305H123.843C120.046 6.49305 116.938 9.58539 116.938 13.3647V27.8717C116.938 31.6519 120.046 34.7451 123.843 34.7451H39.8439C36.047 34.7451 32.9403 31.6519 32.9403 27.8717C32.9403 31.6519 29.8327 34.7451 26.0367 34.7451C22.2389 34.7451 19.1313 31.6519 19.1313 27.8717V13.3647C19.1313 9.58539 22.2389 6.49305 26.0367 6.49305Z" fill="#D8E3E7"/>
<path fill-rule="evenodd" clip-rule="evenodd" d="M38.8083 14.0234C37.8084 14.0234 36.9961 13.2158 36.9961 12.2196C36.9961 11.2235 37.8084 10.4159 38.8083 10.4159H118.952C119.952 10.4159 120.765 11.2235 120.765 12.2196C120.765 13.2158 119.952 14.0234 118.952 14.0234H38.8083Z" fill="#132C33"/>
<path fill-rule="evenodd" clip-rule="evenodd" d="M38.8083 22.4224C37.8084 22.4224 36.9961 21.6156 36.9961 20.6186C36.9961 19.6233 37.8084 18.8148 38.8083 18.8148H118.952C119.952 18.8148 120.765 19.6233 120.765 20.6186C120.765 21.6156 119.952 22.4224 118.952 22.4224H38.8083Z" fill="#132C33"/>
<path fill-rule="evenodd" clip-rule="evenodd" d="M38.8083 30.8223C37.8084 30.8223 36.9961 30.0146 36.9961 29.0176C36.9961 28.0223 37.8084 27.2138 38.8083 27.2138H118.952C119.952 27.2138 120.765 28.0223 120.765 29.0176C120.765 30.0146 119.952 30.8223 118.952 30.8223H38.8083Z" fill="#132C33"/>
<path fill-rule="evenodd" clip-rule="evenodd" d="M39.8701 18.8324H66.4607V54.9893L52.7544 48.8451L39.8701 54.9893V18.8324Z" fill="#132C33"/>
<path d="M22.4897 61.7643C24.1977 62.2403 25.5137 63.0943 26.4377 64.3263C27.3897 65.5583 27.8657 67.0983 27.8657 68.9463C27.8657 71.4943 26.9837 73.4823 25.2197 74.9103C23.4837 76.3103 21.0477 77.0103 17.9117 77.0103H7.20172C6.52972 77.0103 5.99772 76.8283 5.60572 76.4643C5.24172 76.0723 5.05972 75.5543 5.05972 74.9103V49.5003C5.05972 48.8563 5.24172 48.3523 5.60572 47.9883C5.99772 47.5963 6.52972 47.4003 7.20172 47.4003H17.4497C20.5017 47.4003 22.8817 48.0863 24.5897 49.4583C26.3257 50.8023 27.1937 52.6923 27.1937 55.1283C27.1937 56.6963 26.7737 58.0543 25.9337 59.2023C25.1217 60.3503 23.9737 61.2043 22.4897 61.7643ZM9.30172 60.2103H16.7777C20.9217 60.2103 22.9937 58.6423 22.9937 55.5063C22.9937 53.9383 22.4757 52.7763 21.4397 52.0203C20.4317 51.2643 18.8777 50.8863 16.7777 50.8863H9.30172V60.2103ZM17.4497 73.5243C19.6057 73.5243 21.1877 73.1323 22.1957 72.3483C23.2037 71.5643 23.7077 70.3463 23.7077 68.6943C23.7077 67.0143 23.1897 65.7683 22.1537 64.9563C21.1457 64.1163 19.5777 63.6963 17.4497 63.6963H9.30172V73.5243H17.4497ZM41.9246 77.3043C39.9086 77.3043 38.1306 76.8703 36.5906 76.0023C35.0786 75.1343 33.9026 73.9023 33.0626 72.3063C32.2506 70.6823 31.8446 68.8063 31.8446 66.6783C31.8446 64.5223 32.2506 62.6463 33.0626 61.0503C33.9026 59.4263 35.0786 58.1803 36.5906 57.3123C38.1306 56.4443 39.9086 56.0103 41.9246 56.0103C43.9406 56.0103 45.7046 56.4443 47.2166 57.3123C48.7566 58.1803 49.9326 59.4263 50.7446 61.0503C51.5846 62.6463 52.0046 64.5223 52.0046 66.6783C52.0046 68.8063 51.5846 70.6823 50.7446 72.3063C49.9326 73.9023 48.7566 75.1343 47.2166 76.0023C45.7046 76.8703 43.9406 77.3043 41.9246 77.3043ZM41.9246 73.9443C43.8006 73.9443 45.2286 73.3283 46.2086 72.0963C47.2166 70.8643 47.7206 69.0583 47.7206 66.6783C47.7206 64.3263 47.2166 62.5343 46.2086 61.3023C45.2006 60.0423 43.7726 59.4123 41.9246 59.4123C40.0766 59.4123 38.6486 60.0423 37.6406 61.3023C36.6326 62.5343 36.1286 64.3263 36.1286 66.6783C36.1286 69.0583 36.6186 70.8643 37.5986 72.0963C38.6066 73.3283 40.0486 73.9443 41.9246 73.9443ZM65.6316 77.3043C63.6156 77.3043 61.8376 76.8703 60.2976 76.0023C58.7856 75.1343 57.6096 73.9023 56.7696 72.3063C55.9576 70.6823 55.5516 68.8063 55.5516 66.6783C55.5516 64.5223 55.9576 62.6463 56.7696 61.0503C57.6096 59.4263 58.7856 58.1803 60.2976 57.3123C61.8376 56.4443 63.6156 56.0103 65.6316 56.0103C67.6476 56.0103 69.4116 56.4443 70.9236 57.3123C72.4636 58.1803 73.6396 59.4263 74.4516 61.0503C75.2916 62.6463 75.7116 64.5223 75.7116 66.6783C75.7116 68.8063 75.2916 70.6823 74.4516 72.3063C73.6396 73.9023 72.4636 75.1343 70.9236 76.0023C69.4116 76.8703 67.6476 77.3043 65.6316 77.3043ZM65.6316 73.9443C67.5076 73.9443 68.9356 73.3283 69.9156 72.0963C70.9236 70.8643 71.4276 69.0583 71.4276 66.6783C71.4276 64.3263 70.9236 62.5343 69.9156 61.3023C68.9076 60.0423 67.4796 59.4123 65.6316 59.4123C63.7836 59.4123 62.3556 60.0423 61.3476 61.3023C60.3396 62.5343 59.8356 64.3263 59.8356 66.6783C59.8356 69.0583 60.3256 70.8643 61.3056 72.0963C62.3136 73.3283 63.7556 73.9443 65.6316 73.9443ZM97.6546 73.6923C98.1586 74.1123 98.4106 74.6303 98.4106 75.2463C98.4106 75.7783 98.2286 76.2403 97.8646 76.6323C97.5006 77.0243 97.0666 77.2203 96.5626 77.2203C96.0306 77.2203 95.5546 77.0243 95.1346 76.6323L84.6766 67.3923V75.1623C84.6766 75.8343 84.4806 76.3523 84.0886 76.7163C83.6966 77.0523 83.1926 77.2203 82.5766 77.2203C81.9606 77.2203 81.4426 77.0523 81.0226 76.7163C80.6306 76.3523 80.4346 75.8343 80.4346 75.1623V49.2483C80.4346 48.5763 80.6306 48.0723 81.0226 47.7363C81.4426 47.3723 81.9606 47.1903 82.5766 47.1903C83.1926 47.1903 83.6966 47.3723 84.0886 47.7363C84.4806 48.0723 84.6766 48.5763 84.6766 49.2483V65.7123L94.2526 56.7663C94.7286 56.3463 95.1906 56.1363 95.6386 56.1363C96.1706 56.1363 96.6326 56.3323 97.0246 56.7243C97.4166 57.1163 97.6126 57.5783 97.6126 58.1103C97.6126 58.6423 97.3746 59.1323 96.8986 59.5803L89.4226 66.4263L97.6546 73.6923ZM104.778 77.0103C104.106 77.0103 103.574 76.8283 103.182 76.4643C102.818 76.0723 102.636 75.5543 102.636 74.9103V49.5003C102.636 48.8563 102.818 48.3523 103.182 47.9883C103.574 47.5963 104.106 47.4003 104.778 47.4003H120.234C120.878 47.4003 121.368 47.5543 121.704 47.8623C122.068 48.1703 122.25 48.6043 122.25 49.1643C122.25 49.7243 122.068 50.1583 121.704 50.4663C121.368 50.7463 120.878 50.8863 120.234 50.8863H106.878V60.2103H119.394C120.038 60.2103 120.528 60.3643 120.864 60.6723C121.228 60.9803 121.41 61.4143 121.41 61.9743C121.41 62.5343 121.228 62.9683 120.864 63.2763C120.528 63.5843 120.038 63.7383 119.394 63.7383H106.878V73.5243H120.234C121.578 73.5243 122.25 74.0983 122.25 75.2463C122.25 75.8063 122.068 76.2403 121.704 76.5483C121.368 76.8563 120.878 77.0103 120.234 77.0103H104.778ZM143.962 73.8183C144.382 74.2383 144.592 74.7283 144.592 75.2883C144.592 75.8203 144.396 76.2823 144.004 76.6743C143.64 77.0383 143.192 77.2203 142.66 77.2203C142.128 77.2203 141.638 76.9823 141.19 76.5063L134.764 69.2823L128.38 76.5063C127.932 76.9823 127.442 77.2203 126.91 77.2203C126.378 77.2203 125.916 77.0243 125.524 76.6323C125.16 76.2403 124.978 75.7783 124.978 75.2463C124.978 74.7143 125.174 74.2383 125.566 73.8183L132.202 66.5103L125.902 59.4963C125.482 59.0203 125.272 58.5443 125.272 58.0683C125.272 57.5363 125.468 57.0883 125.86 56.7243C126.252 56.3323 126.7 56.1363 127.204 56.1363C127.736 56.1363 128.226 56.3743 128.674 56.8503L134.764 63.7383L140.854 56.8503C141.302 56.3743 141.806 56.1363 142.366 56.1363C142.87 56.1363 143.318 56.3323 143.71 56.7243C144.102 57.0883 144.298 57.5363 144.298 58.0683C144.298 58.6003 144.088 59.0763 143.668 59.4963L137.368 66.5103L143.962 73.8183Z" fill="#132C33"/>
<path d="M25.4556 90.8738C25.5116 90.9618 25.5396 91.0538 25.5396 91.1498C25.5396 91.2698 25.4916 91.3698 25.3956 91.4498C25.3076 91.5218 25.2036 91.5578 25.0836 91.5578C24.8996 91.5578 24.7556 91.4778 24.6516 91.3178L23.0436 88.7738C22.8356 88.4458 22.6196 88.2218 22.3956 88.1018C22.1716 87.9738 21.8676 87.9098 21.4836 87.9098H19.9716V91.0418C19.9716 91.1938 19.9276 91.3178 19.8396 91.4138C19.7516 91.5018 19.6356 91.5458 19.4916 91.5458C19.3396 91.5458 19.2196 91.5018 19.1316 91.4138C19.0436 91.3178 18.9996 91.1938 18.9996 91.0418V83.5058C18.9996 83.3618 19.0436 83.2458 19.1316 83.1578C19.2276 83.0698 19.3516 83.0258 19.5036 83.0258H22.4796C23.3996 83.0258 24.0996 83.2298 24.5796 83.6378C25.0676 84.0458 25.3116 84.6458 25.3116 85.4378C25.3116 86.1098 25.1156 86.6498 24.7236 87.0578C24.3396 87.4658 23.7876 87.7138 23.0676 87.8018C23.2676 87.8658 23.4476 87.9698 23.6076 88.1138C23.7676 88.2578 23.9276 88.4578 24.0876 88.7138L25.4556 90.8738ZM22.3956 87.0938C23.0516 87.0938 23.5396 86.9578 23.8596 86.6858C24.1876 86.4138 24.3516 86.0018 24.3516 85.4498C24.3516 84.9058 24.1916 84.5018 23.8716 84.2378C23.5516 83.9738 23.0596 83.8418 22.3956 83.8418H19.9716V87.0938H22.3956ZM31.6061 90.1298C31.6941 90.1298 31.7701 90.1658 31.8341 90.2378C31.8981 90.3098 31.9301 90.4018 31.9301 90.5138C31.9301 90.7138 31.7901 90.8978 31.5101 91.0658C31.2221 91.2338 30.9181 91.3618 30.5981 91.4498C30.2781 91.5298 29.9661 91.5698 29.6621 91.5698C28.7581 91.5698 28.0421 91.3018 27.5141 90.7658C26.9941 90.2298 26.7341 89.4898 26.7341 88.5458C26.7341 87.9458 26.8501 87.4178 27.0821 86.9618C27.3141 86.4978 27.6381 86.1378 28.0541 85.8818C28.4781 85.6258 28.9581 85.4978 29.4941 85.4978C30.2541 85.4978 30.8581 85.7458 31.3061 86.2418C31.7541 86.7378 31.9781 87.4098 31.9781 88.2578C31.9781 88.4178 31.9461 88.5338 31.8821 88.6058C31.8181 88.6778 31.7141 88.7138 31.5701 88.7138H27.7061C27.7781 90.0898 28.4301 90.7778 29.6621 90.7778C29.9741 90.7778 30.2421 90.7378 30.4661 90.6578C30.6901 90.5698 30.9301 90.4538 31.1861 90.3098C31.3941 90.1898 31.5341 90.1298 31.6061 90.1298ZM29.5061 86.2538C28.9941 86.2538 28.5821 86.4138 28.2701 86.7338C27.9661 87.0538 27.7861 87.5058 27.7301 88.0898H31.1261C31.1101 87.4978 30.9621 87.0458 30.6821 86.7338C30.4021 86.4138 30.0101 86.2538 29.5061 86.2538ZM35.7983 85.4978C37.2623 85.4978 37.9943 86.2658 37.9943 87.8018V91.0658C37.9943 91.2098 37.9503 91.3258 37.8623 91.4138C37.7823 91.5018 37.6703 91.5458 37.5263 91.5458C37.3823 91.5458 37.2663 91.5018 37.1783 91.4138C37.0903 91.3258 37.0463 91.2098 37.0463 91.0658V90.4898C36.8943 90.8338 36.6623 91.1018 36.3503 91.2938C36.0383 91.4778 35.6783 91.5698 35.2703 91.5698C34.8943 91.5698 34.5463 91.4938 34.2263 91.3418C33.9143 91.1898 33.6663 90.9778 33.4823 90.7058C33.2983 90.4338 33.2063 90.1338 33.2063 89.8058C33.2063 89.3658 33.3183 89.0258 33.5423 88.7858C33.7663 88.5378 34.1343 88.3618 34.6463 88.2578C35.1583 88.1458 35.8703 88.0898 36.7823 88.0898H37.0463V87.6938C37.0463 87.2138 36.9463 86.8618 36.7463 86.6378C36.5543 86.4138 36.2383 86.3018 35.7983 86.3018C35.2543 86.3018 34.7023 86.4498 34.1423 86.7458C33.9263 86.8818 33.7743 86.9498 33.6863 86.9498C33.5903 86.9498 33.5103 86.9138 33.4463 86.8418C33.3823 86.7698 33.3503 86.6778 33.3503 86.5658C33.3503 86.4538 33.3823 86.3578 33.4463 86.2778C33.5183 86.1898 33.6303 86.1018 33.7823 86.0138C34.0623 85.8538 34.3783 85.7298 34.7303 85.6418C35.0903 85.5458 35.4463 85.4978 35.7983 85.4978ZM35.4023 90.8018C35.8823 90.8018 36.2743 90.6418 36.5783 90.3218C36.8903 89.9938 37.0463 89.5738 37.0463 89.0618V88.7138H36.8303C36.1263 88.7138 35.5903 88.7458 35.2223 88.8098C34.8543 88.8658 34.5903 88.9658 34.4303 89.1098C34.2783 89.2458 34.2023 89.4498 34.2023 89.7218C34.2023 90.0338 34.3143 90.2938 34.5383 90.5018C34.7703 90.7018 35.0583 90.8018 35.4023 90.8018ZM44.4655 82.9658C44.6175 82.9658 44.7375 83.0098 44.8255 83.0978C44.9135 83.1858 44.9575 83.2978 44.9575 83.4338V91.0658C44.9575 91.2098 44.9135 91.3258 44.8255 91.4138C44.7375 91.5018 44.6175 91.5458 44.4655 91.5458C44.3135 91.5458 44.1935 91.5018 44.1055 91.4138C44.0255 91.3258 43.9855 91.2098 43.9855 91.0658V90.4178C43.8095 90.7858 43.5495 91.0698 43.2055 91.2698C42.8695 91.4698 42.4735 91.5698 42.0175 91.5698C41.5055 91.5698 41.0535 91.4418 40.6615 91.1858C40.2695 90.9298 39.9655 90.5738 39.7495 90.1178C39.5335 89.6538 39.4255 89.1178 39.4255 88.5098C39.4255 87.9098 39.5335 87.3818 39.7495 86.9258C39.9655 86.4698 40.2695 86.1178 40.6615 85.8698C41.0535 85.6218 41.5055 85.4978 42.0175 85.4978C42.4735 85.4978 42.8695 85.5978 43.2055 85.7978C43.5495 85.9978 43.8095 86.2818 43.9855 86.6498V83.4338C43.9855 83.2898 44.0255 83.1778 44.1055 83.0978C44.1935 83.0098 44.3135 82.9658 44.4655 82.9658ZM42.2095 90.7658C42.7775 90.7658 43.2135 90.5738 43.5175 90.1898C43.8295 89.7978 43.9855 89.2458 43.9855 88.5338C43.9855 87.8218 43.8295 87.2738 43.5175 86.8898C43.2135 86.5058 42.7775 86.3138 42.2095 86.3138C41.6415 86.3138 41.1975 86.5058 40.8775 86.8898C40.5655 87.2738 40.4095 87.8138 40.4095 88.5098C40.4095 89.2218 40.5655 89.7778 40.8775 90.1778C41.1975 90.5698 41.6415 90.7658 42.2095 90.7658ZM50.4997 91.4858C50.3477 91.4858 50.2237 91.4418 50.1277 91.3538C50.0397 91.2658 49.9957 91.1498 49.9957 91.0058V83.5058C49.9957 83.3618 50.0397 83.2458 50.1277 83.1578C50.2237 83.0698 50.3477 83.0258 50.4997 83.0258H54.9877C55.1317 83.0258 55.2437 83.0618 55.3237 83.1338C55.4037 83.2058 55.4437 83.3058 55.4437 83.4338C55.4437 83.5618 55.4037 83.6618 55.3237 83.7338C55.2437 83.8058 55.1317 83.8418 54.9877 83.8418H50.9677V86.7818H54.7477C54.8917 86.7818 55.0037 86.8178 55.0837 86.8898C55.1637 86.9618 55.2037 87.0618 55.2037 87.1898C55.2037 87.3178 55.1637 87.4178 55.0837 87.4898C55.0037 87.5618 54.8917 87.5978 54.7477 87.5978H50.9677V90.6698H54.9877C55.1317 90.6698 55.2437 90.7058 55.3237 90.7778C55.4037 90.8418 55.4437 90.9418 55.4437 91.0778C55.4437 91.2058 55.4037 91.3058 55.3237 91.3778C55.2437 91.4498 55.1317 91.4858 54.9877 91.4858H50.4997ZM61.048 85.8218C61.136 85.6298 61.276 85.5338 61.468 85.5338C61.588 85.5338 61.696 85.5738 61.792 85.6538C61.888 85.7338 61.936 85.8338 61.936 85.9538C61.936 86.0258 61.92 86.0898 61.888 86.1458L59.548 91.1858C59.5 91.2898 59.428 91.3738 59.332 91.4378C59.236 91.4938 59.132 91.5218 59.02 91.5218C58.916 91.5218 58.816 91.4938 58.72 91.4378C58.624 91.3738 58.548 91.2898 58.492 91.1858L56.164 86.1458C56.132 86.0898 56.116 86.0298 56.116 85.9658C56.116 85.8458 56.168 85.7418 56.272 85.6538C56.384 85.5658 56.504 85.5218 56.632 85.5218C56.712 85.5218 56.788 85.5458 56.86 85.5938C56.94 85.6418 57 85.7098 57.04 85.7978L59.044 90.2978L61.048 85.8218ZM67.4538 90.1298C67.5418 90.1298 67.6178 90.1658 67.6818 90.2378C67.7458 90.3098 67.7778 90.4018 67.7778 90.5138C67.7778 90.7138 67.6378 90.8978 67.3578 91.0658C67.0698 91.2338 66.7658 91.3618 66.4458 91.4498C66.1258 91.5298 65.8138 91.5698 65.5098 91.5698C64.6058 91.5698 63.8898 91.3018 63.3618 90.7658C62.8418 90.2298 62.5818 89.4898 62.5818 88.5458C62.5818 87.9458 62.6978 87.4178 62.9298 86.9618C63.1618 86.4978 63.4858 86.1378 63.9018 85.8818C64.3258 85.6258 64.8058 85.4978 65.3418 85.4978C66.1018 85.4978 66.7058 85.7458 67.1538 86.2418C67.6018 86.7378 67.8258 87.4098 67.8258 88.2578C67.8258 88.4178 67.7938 88.5338 67.7298 88.6058C67.6658 88.6778 67.5618 88.7138 67.4178 88.7138H63.5538C63.6258 90.0898 64.2778 90.7778 65.5098 90.7778C65.8218 90.7778 66.0898 90.7378 66.3138 90.6578C66.5378 90.5698 66.7778 90.4538 67.0338 90.3098C67.2418 90.1898 67.3818 90.1298 67.4538 90.1298ZM65.3538 86.2538C64.8418 86.2538 64.4298 86.4138 64.1178 86.7338C63.8138 87.0538 63.6338 87.5058 63.5778 88.0898H66.9738C66.9578 87.4978 66.8098 87.0458 66.5298 86.7338C66.2498 86.4138 65.8578 86.2538 65.3538 86.2538ZM72.1499 85.5218C72.4859 85.4978 72.6539 85.6338 72.6539 85.9298C72.6539 86.0578 72.6179 86.1618 72.5459 86.2418C72.4739 86.3138 72.3499 86.3578 72.1739 86.3738L71.8139 86.4098C71.2779 86.4578 70.8779 86.6498 70.6139 86.9858C70.3579 87.3138 70.2299 87.7018 70.2299 88.1498V91.0658C70.2299 91.2258 70.1859 91.3458 70.0979 91.4258C70.0099 91.5058 69.8939 91.5458 69.7499 91.5458C69.6059 91.5458 69.4859 91.5058 69.3899 91.4258C69.3019 91.3378 69.2579 91.2178 69.2579 91.0658V86.0018C69.2579 85.8498 69.3059 85.7338 69.4019 85.6538C69.4979 85.5658 69.6139 85.5218 69.7499 85.5218C69.8779 85.5218 69.9859 85.5658 70.0739 85.6538C70.1619 85.7338 70.2059 85.8458 70.2059 85.9898V86.6618C70.3739 86.3098 70.6099 86.0418 70.9139 85.8578C71.2259 85.6738 71.5819 85.5658 71.9819 85.5338L72.1499 85.5218ZM78.0637 85.8218C78.1517 85.6298 78.2917 85.5338 78.4837 85.5338C78.6037 85.5338 78.7117 85.5738 78.8077 85.6538C78.9037 85.7338 78.9517 85.8338 78.9517 85.9538C78.9517 86.0258 78.9357 86.0898 78.9037 86.1458L75.5317 93.4178C75.4917 93.5058 75.4317 93.5738 75.3517 93.6218C75.2797 93.6698 75.2037 93.6938 75.1237 93.6938C75.0037 93.6938 74.8957 93.6538 74.7997 93.5738C74.7117 93.5018 74.6677 93.4058 74.6677 93.2858C74.6677 93.2218 74.6837 93.1578 74.7157 93.0938L75.5557 91.2818L73.1797 86.1458C73.1477 86.0898 73.1317 86.0298 73.1317 85.9658C73.1317 85.8458 73.1837 85.7418 73.2877 85.6538C73.3997 85.5658 73.5197 85.5218 73.6477 85.5218C73.7277 85.5218 73.8037 85.5458 73.8757 85.5938C73.9557 85.6418 74.0157 85.7098 74.0557 85.7978L76.0597 90.2978L78.0637 85.8218ZM84.6374 82.9658C84.7894 82.9658 84.9094 83.0098 84.9974 83.0978C85.0854 83.1858 85.1294 83.2978 85.1294 83.4338V91.0658C85.1294 91.2098 85.0854 91.3258 84.9974 91.4138C84.9094 91.5018 84.7894 91.5458 84.6374 91.5458C84.4854 91.5458 84.3654 91.5018 84.2774 91.4138C84.1974 91.3258 84.1574 91.2098 84.1574 91.0658V90.4178C83.9814 90.7858 83.7214 91.0698 83.3774 91.2698C83.0414 91.4698 82.6454 91.5698 82.1894 91.5698C81.6774 91.5698 81.2254 91.4418 80.8334 91.1858C80.4414 90.9298 80.1374 90.5738 79.9214 90.1178C79.7054 89.6538 79.5974 89.1178 79.5974 88.5098C79.5974 87.9098 79.7054 87.3818 79.9214 86.9258C80.1374 86.4698 80.4414 86.1178 80.8334 85.8698C81.2254 85.6218 81.6774 85.4978 82.1894 85.4978C82.6454 85.4978 83.0414 85.5978 83.3774 85.7978C83.7214 85.9978 83.9814 86.2818 84.1574 86.6498V83.4338C84.1574 83.2898 84.1974 83.1778 84.2774 83.0978C84.3654 83.0098 84.4854 82.9658 84.6374 82.9658ZM82.3814 90.7658C82.9494 90.7658 83.3854 90.5738 83.6894 90.1898C84.0014 89.7978 84.1574 89.2458 84.1574 88.5338C84.1574 87.8218 84.0014 87.2738 83.6894 86.8898C83.3854 86.5058 82.9494 86.3138 82.3814 86.3138C81.8134 86.3138 81.3694 86.5058 81.0494 86.8898C80.7374 87.2738 80.5814 87.8138 80.5814 88.5098C80.5814 89.2218 80.7374 89.7778 81.0494 90.1778C81.3694 90.5698 81.8134 90.7658 82.3814 90.7658ZM89.3178 85.4978C90.7818 85.4978 91.5138 86.2658 91.5138 87.8018V91.0658C91.5138 91.2098 91.4698 91.3258 91.3818 91.4138C91.3018 91.5018 91.1898 91.5458 91.0458 91.5458C90.9018 91.5458 90.7858 91.5018 90.6978 91.4138C90.6098 91.3258 90.5658 91.2098 90.5658 91.0658V90.4898C90.4138 90.8338 90.1818 91.1018 89.8698 91.2938C89.5578 91.4778 89.1978 91.5698 88.7898 91.5698C88.4138 91.5698 88.0658 91.4938 87.7458 91.3418C87.4338 91.1898 87.1858 90.9778 87.0018 90.7058C86.8178 90.4338 86.7258 90.1338 86.7258 89.8058C86.7258 89.3658 86.8378 89.0258 87.0618 88.7858C87.2858 88.5378 87.6538 88.3618 88.1658 88.2578C88.6778 88.1458 89.3898 88.0898 90.3018 88.0898H90.5658V87.6938C90.5658 87.2138 90.4658 86.8618 90.2658 86.6378C90.0738 86.4138 89.7578 86.3018 89.3178 86.3018C88.7738 86.3018 88.2218 86.4498 87.6618 86.7458C87.4458 86.8818 87.2938 86.9498 87.2058 86.9498C87.1098 86.9498 87.0298 86.9138 86.9658 86.8418C86.9018 86.7698 86.8698 86.6778 86.8698 86.5658C86.8698 86.4538 86.9018 86.3578 86.9658 86.2778C87.0378 86.1898 87.1498 86.1018 87.3018 86.0138C87.5818 85.8538 87.8978 85.7298 88.2498 85.6418C88.6098 85.5458 88.9658 85.4978 89.3178 85.4978ZM88.9218 90.8018C89.4018 90.8018 89.7938 90.6418 90.0978 90.3218C90.4098 89.9938 90.5658 89.5738 90.5658 89.0618V88.7138H90.3498C89.6458 88.7138 89.1098 88.7458 88.7418 88.8098C88.3738 88.8658 88.1098 88.9658 87.9498 89.1098C87.7978 89.2458 87.7218 89.4498 87.7218 89.7218C87.7218 90.0338 87.8338 90.2938 88.0578 90.5018C88.2898 90.7018 88.5778 90.8018 88.9218 90.8018ZM97.5051 85.8218C97.5931 85.6298 97.7331 85.5338 97.9251 85.5338C98.0451 85.5338 98.1531 85.5738 98.2491 85.6538C98.3451 85.7338 98.3931 85.8338 98.3931 85.9538C98.3931 86.0258 98.3771 86.0898 98.3451 86.1458L94.9731 93.4178C94.9331 93.5058 94.8731 93.5738 94.7931 93.6218C94.7211 93.6698 94.6451 93.6938 94.5651 93.6938C94.4451 93.6938 94.3371 93.6538 94.2411 93.5738C94.1531 93.5018 94.1091 93.4058 94.1091 93.2858C94.1091 93.2218 94.1251 93.1578 94.1571 93.0938L94.9971 91.2818L92.6211 86.1458C92.5891 86.0898 92.5731 86.0298 92.5731 85.9658C92.5731 85.8458 92.6251 85.7418 92.7291 85.6538C92.8411 85.5658 92.9611 85.5218 93.0891 85.5218C93.1691 85.5218 93.2451 85.5458 93.3171 85.5938C93.3971 85.6418 93.4571 85.7098 93.4971 85.7978L95.5011 90.2978L97.5051 85.8218Z" fill="#132C33"/>
</svg>
