<svg width="30" height="30" viewBox="0 0 30 30" fill="none" xmlns="http://www.w3.org/2000/svg">
<path d="M3.06655 20.0757C3.41817 20.4272 3.89499 20.6246 4.39218 20.6246C4.88936 20.6246 5.36619 20.4272 5.7178 20.0757L14.999 10.7944L24.2803 20.0757C24.6339 20.4172 25.1075 20.6062 25.5992 20.6019C26.0908 20.5976 26.5611 20.4005 26.9087 20.0528C27.2563 19.7052 27.4535 19.2349 27.4578 18.7433C27.4621 18.2517 27.2731 17.778 26.9315 17.4244L16.3247 6.81753C15.9731 6.46602 15.4962 6.26855 14.999 6.26855C14.5019 6.26855 14.025 6.46602 13.6734 6.81753L3.06655 17.4244C2.71504 17.776 2.51758 18.2528 2.51758 18.75C2.51758 19.2472 2.71504 19.724 3.06655 20.0757V20.0757Z" fill="black"/>
</svg>
