<svg width="30" height="30" viewBox="0 0 30 30" fill="none" xmlns="http://www.w3.org/2000/svg">
<path d="M3.06655 9.92435C3.41817 9.57284 3.89499 9.37537 4.39218 9.37537C4.88936 9.37537 5.36619 9.57284 5.7178 9.92435L14.999 19.2056L24.2803 9.92435C24.6339 9.5828 25.1075 9.39381 25.5992 9.39808C26.0908 9.40236 26.5611 9.59955 26.9087 9.94719C27.2563 10.2948 27.4535 10.7651 27.4578 11.2567C27.4621 11.7483 27.2731 12.222 26.9315 12.5756L16.3247 23.1825C15.9731 23.534 15.4962 23.7314 14.999 23.7314C14.5019 23.7314 14.025 23.534 13.6734 23.1825L3.06655 12.5756C2.71504 12.224 2.51758 11.7472 2.51758 11.25C2.51758 10.7528 2.71504 10.276 3.06655 9.92435V9.92435Z" fill="black"/>
</svg>
