<svg width="18" height="23" viewBox="0 0 18 23" fill="none" xmlns="http://www.w3.org/2000/svg">
<path d="M9 13V11.5C9 10.9696 8.78929 10.4608 8.41421 10.0858C8.03914 9.7107 7.53043 9.49998 7 9.49998C6.46957 9.49998 5.96086 9.7107 5.58579 10.0858C5.21071 10.4608 5 10.9696 5 11.5V15M16 16L16.87 4.26498C16.9172 3.71587 16.7469 3.17018 16.3957 2.74543C16.0444 2.32069 15.5405 2.05087 14.9923 1.9941C14.4441 1.93732 13.8955 2.09813 13.4647 2.44189C13.0339 2.78565 12.7553 3.28485 12.689 3.83198L12 8.99998L16 16ZM5 15V12C5 11.4696 4.78929 10.9608 4.41421 10.5858C4.03914 10.2107 3.53043 9.99998 3 9.99998C2.46957 9.99998 1.96086 10.2107 1.58579 10.5858C1.21071 10.9608 1 11.4696 1 12V16L5 15Z" stroke="black" stroke-width="2" stroke-linecap="round" stroke-linejoin="round"/>
<path d="M13 13V11C13 10.4696 12.7893 9.96086 12.4142 9.58579C12.0391 9.21071 11.5304 9 11 9C10.4696 9 9.96086 9.21071 9.58579 9.58579C9.21071 9.96086 9 10.4696 9 11V13" stroke="black" stroke-width="2" stroke-linecap="round" stroke-linejoin="round"/>
<path d="M16 16C15.464 20 12.642 22 8.5 22C4.358 22 1 20 1 16" stroke="black" stroke-width="2"/>
<path d="M10.692 17H8C7.46957 17 6.96086 16.7893 6.58579 16.4142C6.21071 16.0391 6 15.5304 6 15C6 14.4696 6.21071 13.9609 6.58579 13.5858C6.96086 13.2107 7.46957 13 8 13H12C14.21 13 16.5 15 15.5 18" stroke="black" stroke-width="2" stroke-linecap="round" stroke-linejoin="round"/>
</svg>
